<svg xmlns="http://www.w3.org/2000/svg" viewBox="0 0 960 997" font-family="system-ui, -apple-system, sans-serif" font-size="13">
  <defs>
    <marker id="arrow" markerWidth="8" markerHeight="6" refX="8" refY="3" orient="auto">
      <path d="M0,0 L8,3 L0,6" fill="#555555"/>
    </marker>
    <linearGradient id="ssmGrad" x1="0" y1="0" x2="0" y2="1">
      <stop offset="0%" stop-color="#e8f5e9"/><stop offset="100%" stop-color="#c8e6c9"/>
    </linearGradient>
    <linearGradient id="attnGrad" x1="0" y1="0" x2="0" y2="1">
      <stop offset="0%" stop-color="#e3f2fd"/><stop offset="100%" stop-color="#bbdefb"/>
    </linearGradient>
    <linearGradient id="ffnGrad" x1="0" y1="0" x2="0" y2="1">
      <stop offset="0%" stop-color="#fff3e0"/><stop offset="100%" stop-color="#ffe0b2"/>
    </linearGradient>
    <linearGradient id="normGrad" x1="0" y1="0" x2="0" y2="1">
      <stop offset="0%" stop-color="#f3e5f5"/><stop offset="100%" stop-color="#e1bee7"/>
    </linearGradient>
    <linearGradient id="globalGrad" x1="0" y1="0" x2="0" y2="1">
      <stop offset="0%" stop-color="#fce4ec"/><stop offset="100%" stop-color="#f8bbd0"/>
    </linearGradient>
    <filter id="shadow" x="-2%" y="-2%" width="104%" height="104%">
      <feDropShadow dx="1" dy="1" stdDeviation="2" flood-opacity="0.12"/>
    </filter>
  <!-- Block definitions -->
  <g id="block_mla_attention">
<g>
  <rect width="660" height="250" rx="6" fill="url(#attnGrad)" stroke="#1565c0" stroke-width="1.2" filter="url(#shadow)"/>
  <text x="330" y="20" text-anchor="middle" font-weight="700" font-size="13" fill="#0d47a1">Multi-head Latent Attention (MLA)</text>
  <g transform="translate(15, 35)">
    <rect width="150" height="56" rx="4" fill="#fff" stroke="#64b5f6" stroke-width="0.8" opacity="0.9"/>
    <text x="75" y="17" text-anchor="middle" font-size="11" font-weight="600" fill="#1565c0">Q Low-Rank</text>
    <text x="75" y="31" text-anchor="middle" font-size="9" fill="#777">q_a -> norm -> q_b</text>
    <text x="75" y="43" text-anchor="middle" font-size="9" fill="#777">split: nope + pe</text>
  </g>
  <g transform="translate(180, 35)">
    <rect width="150" height="56" rx="4" fill="#fff" stroke="#64b5f6" stroke-width="0.8" opacity="0.9"/>
    <text x="75" y="17" text-anchor="middle" font-size="11" font-weight="600" fill="#1565c0">KV Compression</text>
    <text x="75" y="31" text-anchor="middle" font-size="9" fill="#777">kv_a_mqa -> norm</text>
    <text x="75" y="43" text-anchor="middle" font-size="9" fill="#777">split: compressed + pe</text>
  </g>
  <g transform="translate(345, 35)">
    <rect width="150" height="56" rx="4" fill="#fff" stroke="#64b5f6" stroke-width="0.8" opacity="0.9"/>
    <text x="75" y="17" text-anchor="middle" font-size="11" font-weight="600" fill="#1565c0">Q Absorption</text>
    <text x="75" y="31" text-anchor="middle" font-size="9" fill="#777">q_nope @ k_b.T</text>
    <text x="75" y="43" text-anchor="middle" font-size="9" fill="#777">+ RoPE on pe dims</text>
  </g>
  <g transform="translate(15, 105)">
    <rect width="300" height="44" rx="4" fill="#fff" stroke="#64b5f6" stroke-width="0.8" opacity="0.9"/>
    <text x="150" y="17" text-anchor="middle" font-size="11" font-weight="600" fill="#1565c0">MQA Attention</text>
    <text x="150" y="31" text-anchor="middle" font-size="9" fill="#777">1 KV head, n_heads Q heads (GQA broadcast)</text>
  </g>
  <g transform="translate(335, 105)">
    <rect width="160" height="44" rx="4" fill="#fff" stroke="#64b5f6" stroke-width="0.8" opacity="0.9"/>
    <text x="80" y="17" text-anchor="middle" font-size="11" font-weight="600" fill="#1565c0">V Decompress</text>
    <text x="80" y="31" text-anchor="middle" font-size="9" fill="#777">v_b per-head expansion</text>
  </g>
  <g transform="translate(15, 163)">
    <rect width="260" height="36" rx="4" fill="#fff" stroke="#64b5f6" stroke-width="0.8" opacity="0.9"/>
    <text x="130" y="15" text-anchor="middle" font-size="11" font-weight="600" fill="#1565c0">Output Projection</text>
    <text x="130" y="28" text-anchor="middle" font-size="9" fill="#777">attn_output.weight</text>
  </g>
  <g transform="translate(510, 35)">
    <rect width="135" height="56" rx="4" fill="#e3f2fd" stroke="#90caf9" stroke-width="0.8" stroke-dasharray="3,2"/>
    <text x="67" y="18" text-anchor="middle" font-size="10" font-weight="600" fill="#1976d2">K Cache Only</text>
    <text x="67" y="32" text-anchor="middle" font-size="9" fill="#666">compressed + rope</text>
    <text x="67" y="44" text-anchor="middle" font-size="9" fill="#666">V derived from K</text>
  </g>
</g>
  </g>
  <g id="block_swiglu">
<g>
  <rect width="440" height="50" rx="6" fill="url(#ffnGrad)" stroke="#e65100" stroke-width="1.2" filter="url(#shadow)"/>
  <text x="220" y="19" text-anchor="middle" font-weight="700" font-size="13" fill="#bf360c">SwiGLU FFN</text>
  <text x="220" y="35" text-anchor="middle" font-size="10" fill="#777">silu(gate * x) * up * x -> down</text>
</g>
  </g>
  </defs>

  <rect width="960" height="997" fill="#fafafa" rx="8"/>

  <text x="480" y="32" text-anchor="middle" font-size="20" font-weight="bold" fill="#333333">Deepseek2 Architecture</text>
  <rect x="292" y="44" width="376" height="44" rx="5" fill="#f5f5f5" stroke="#bdbdbd" stroke-width="0.8"/>
  <g transform="translate(302, 52)">
    <rect x="0" width="18" height="14" rx="3" fill="url(#globalGrad)" stroke="#C62828" stroke-width="0.8"/>
    <text x="24" y="12" font-size="11" fill="#555555">Global</text>
    <rect x="82" width="18" height="14" rx="3" fill="url(#normGrad)" stroke="#9C27B0" stroke-width="0.8"/>
    <text x="106" y="12" font-size="11" fill="#555555">RMSNorm</text>
    <rect x="171" width="18" height="14" rx="3" fill="url(#attnGrad)" stroke="#1976D2" stroke-width="0.8"/>
    <text x="195" y="12" font-size="11" fill="#555555">attention</text>
    <rect x="274" width="18" height="14" rx="3" fill="url(#ffnGrad)" stroke="#EF6C00" stroke-width="0.8"/>
    <text x="298" y="12" font-size="11" fill="#555555">swiglu</text>
  </g>
  <text x="480" y="78" text-anchor="middle" font-size="9" fill="#999999" font-family="monospace">@{name} = engine builtin, ${name} = GGUF-resolved param</text>
  <g transform="translate(330, 110)">
    <rect width="300" height="40" rx="6" fill="url(#globalGrad)" stroke="#C62828" stroke-width="1.2" filter="url(#shadow)"/>
    <text x="150" y="17" text-anchor="middle" font-weight="600" fill="#b71c1c">Token Embedding</text>
    <text x="150" y="32" text-anchor="middle" font-size="10" fill="#777777">token_embd.weight</text>
  </g>
  <line x1="480" y1="150" x2="480" y2="170" stroke="#555555" stroke-width="1.5" marker-end="url(#arrow)"/>
  <rect x="30" y="170" width="900" height="491" rx="8" fill="none" stroke="#1976D2" stroke-width="1.5" stroke-dasharray="6,3" opacity="0.6"/>
  <text x="42" y="190" font-size="11" font-weight="600" fill="#1976D2">mla — when: 1 == 1</text>
  <g transform="translate(330, 213)">
    <rect width="300" height="34" rx="5" fill="url(#normGrad)" stroke="#9C27B0" stroke-width="1" filter="url(#shadow)"/>
    <text x="150" y="14" text-anchor="middle" font-weight="600" fill="#6a1b9a">RMSNorm</text>
    <text x="150" y="27" text-anchor="middle" font-size="10" fill="#777777">attn_norm.weight</text>
  </g>
  <line x1="480" y1="247" x2="480" y2="267" stroke="#555555" stroke-width="1.5" marker-end="url(#arrow)"/>
  <use href="#block_mla_attention" transform="translate(150, 267)"/>
  <text x="822" y="392" font-size="11" fill="#555555" font-weight="600">+ residual</text>
  <g transform="translate(330, 532)">
    <rect width="300" height="34" rx="5" fill="url(#normGrad)" stroke="#9C27B0" stroke-width="1" filter="url(#shadow)"/>
    <text x="150" y="14" text-anchor="middle" font-weight="600" fill="#6a1b9a">RMSNorm</text>
    <text x="150" y="27" text-anchor="middle" font-size="10" fill="#777777">ffn_norm.weight</text>
  </g>
  <line x1="480" y1="566" x2="480" y2="586" stroke="#555555" stroke-width="1.5" marker-end="url(#arrow)"/>
  <use href="#block_swiglu" transform="translate(260, 586)"/>
  <text x="712" y="615" font-size="11" fill="#555555" font-weight="600">+ residual</text>
  <line x1="480" y1="661" x2="480" y2="681" stroke="#555555" stroke-width="1.5" marker-end="url(#arrow)"/>
  <text x="488" y="677" font-size="10" fill="#999999">x repeats</text>
  <g transform="translate(30, 681)">
    <rect width="900" height="50" rx="6" fill="#f5f5f5" stroke="#bdbdbd" stroke-width="1" filter="url(#shadow)"/>
    <text x="450" y="19" text-anchor="middle" font-size="12" font-weight="600" fill="#333333">Layer Pattern (example: 32 layers)</text>
    <g transform="translate(115, 30)">
      <rect x="0" width="18" height="12" rx="2" fill="#bbdefb" stroke="#1976D2" stroke-width="0.6"/><text x="9" y="10" text-anchor="middle" font-size="7" fill="#333333">0</text>
      <rect x="21" width="18" height="12" rx="2" fill="#bbdefb" stroke="#1976D2" stroke-width="0.6"/><text x="30" y="10" text-anchor="middle" font-size="7" fill="#333333">1</text>
      <rect x="42" width="18" height="12" rx="2" fill="#bbdefb" stroke="#1976D2" stroke-width="0.6"/><text x="51" y="10" text-anchor="middle" font-size="7" fill="#333333">2</text>
      <rect x="63" width="18" height="12" rx="2" fill="#bbdefb" stroke="#1976D2" stroke-width="0.6"/><text x="72" y="10" text-anchor="middle" font-size="7" fill="#333333">3</text>
      <rect x="84" width="18" height="12" rx="2" fill="#bbdefb" stroke="#1976D2" stroke-width="0.6"/><text x="93" y="10" text-anchor="middle" font-size="7" fill="#333333">4</text>
      <rect x="105" width="18" height="12" rx="2" fill="#bbdefb" stroke="#1976D2" stroke-width="0.6"/><text x="114" y="10" text-anchor="middle" font-size="7" fill="#333333">5</text>
      <rect x="126" width="18" height="12" rx="2" fill="#bbdefb" stroke="#1976D2" stroke-width="0.6"/><text x="135" y="10" text-anchor="middle" font-size="7" fill="#333333">6</text>
      <rect x="147" width="18" height="12" rx="2" fill="#bbdefb" stroke="#1976D2" stroke-width="0.6"/><text x="156" y="10" text-anchor="middle" font-size="7" fill="#333333">7</text>
      <rect x="168" width="18" height="12" rx="2" fill="#bbdefb" stroke="#1976D2" stroke-width="0.6"/><text x="177" y="10" text-anchor="middle" font-size="7" fill="#333333">8</text>
      <rect x="189" width="18" height="12" rx="2" fill="#bbdefb" stroke="#1976D2" stroke-width="0.6"/><text x="198" y="10" text-anchor="middle" font-size="7" fill="#333333">9</text>
      <rect x="210" width="18" height="12" rx="2" fill="#bbdefb" stroke="#1976D2" stroke-width="0.6"/><text x="219" y="10" text-anchor="middle" font-size="7" fill="#333333">10</text>
      <rect x="231" width="18" height="12" rx="2" fill="#bbdefb" stroke="#1976D2" stroke-width="0.6"/><text x="240" y="10" text-anchor="middle" font-size="7" fill="#333333">11</text>
      <rect x="252" width="18" height="12" rx="2" fill="#bbdefb" stroke="#1976D2" stroke-width="0.6"/><text x="261" y="10" text-anchor="middle" font-size="7" fill="#333333">12</text>
      <rect x="273" width="18" height="12" rx="2" fill="#bbdefb" stroke="#1976D2" stroke-width="0.6"/><text x="282" y="10" text-anchor="middle" font-size="7" fill="#333333">13</text>
      <rect x="294" width="18" height="12" rx="2" fill="#bbdefb" stroke="#1976D2" stroke-width="0.6"/><text x="303" y="10" text-anchor="middle" font-size="7" fill="#333333">14</text>
      <rect x="315" width="18" height="12" rx="2" fill="#bbdefb" stroke="#1976D2" stroke-width="0.6"/><text x="324" y="10" text-anchor="middle" font-size="7" fill="#333333">15</text>
      <rect x="336" width="18" height="12" rx="2" fill="#bbdefb" stroke="#1976D2" stroke-width="0.6"/><text x="345" y="10" text-anchor="middle" font-size="7" fill="#333333">16</text>
      <rect x="357" width="18" height="12" rx="2" fill="#bbdefb" stroke="#1976D2" stroke-width="0.6"/><text x="366" y="10" text-anchor="middle" font-size="7" fill="#333333">17</text>
      <rect x="378" width="18" height="12" rx="2" fill="#bbdefb" stroke="#1976D2" stroke-width="0.6"/><text x="387" y="10" text-anchor="middle" font-size="7" fill="#333333">18</text>
      <rect x="399" width="18" height="12" rx="2" fill="#bbdefb" stroke="#1976D2" stroke-width="0.6"/><text x="408" y="10" text-anchor="middle" font-size="7" fill="#333333">19</text>
      <rect x="420" width="18" height="12" rx="2" fill="#bbdefb" stroke="#1976D2" stroke-width="0.6"/><text x="429" y="10" text-anchor="middle" font-size="7" fill="#333333">20</text>
      <rect x="441" width="18" height="12" rx="2" fill="#bbdefb" stroke="#1976D2" stroke-width="0.6"/><text x="450" y="10" text-anchor="middle" font-size="7" fill="#333333">21</text>
      <rect x="462" width="18" height="12" rx="2" fill="#bbdefb" stroke="#1976D2" stroke-width="0.6"/><text x="471" y="10" text-anchor="middle" font-size="7" fill="#333333">22</text>
      <rect x="483" width="18" height="12" rx="2" fill="#bbdefb" stroke="#1976D2" stroke-width="0.6"/><text x="492" y="10" text-anchor="middle" font-size="7" fill="#333333">23</text>
      <rect x="504" width="18" height="12" rx="2" fill="#bbdefb" stroke="#1976D2" stroke-width="0.6"/><text x="513" y="10" text-anchor="middle" font-size="7" fill="#333333">24</text>
      <rect x="525" width="18" height="12" rx="2" fill="#bbdefb" stroke="#1976D2" stroke-width="0.6"/><text x="534" y="10" text-anchor="middle" font-size="7" fill="#333333">25</text>
      <rect x="546" width="18" height="12" rx="2" fill="#bbdefb" stroke="#1976D2" stroke-width="0.6"/><text x="555" y="10" text-anchor="middle" font-size="7" fill="#333333">26</text>
      <rect x="567" width="18" height="12" rx="2" fill="#bbdefb" stroke="#1976D2" stroke-width="0.6"/><text x="576" y="10" text-anchor="middle" font-size="7" fill="#333333">27</text>
      <rect x="588" width="18" height="12" rx="2" fill="#bbdefb" stroke="#1976D2" stroke-width="0.6"/><text x="597" y="10" text-anchor="middle" font-size="7" fill="#333333">28</text>
      <rect x="609" width="18" height="12" rx="2" fill="#bbdefb" stroke="#1976D2" stroke-width="0.6"/><text x="618" y="10" text-anchor="middle" font-size="7" fill="#333333">29</text>
      <rect x="630" width="18" height="12" rx="2" fill="#bbdefb" stroke="#1976D2" stroke-width="0.6"/><text x="639" y="10" text-anchor="middle" font-size="7" fill="#333333">30</text>
      <rect x="651" width="18" height="12" rx="2" fill="#bbdefb" stroke="#1976D2" stroke-width="0.6"/><text x="660" y="10" text-anchor="middle" font-size="7" fill="#333333">31</text>
    </g>
  </g>
  <line x1="480" y1="731" x2="480" y2="751" stroke="#555555" stroke-width="1.5" marker-end="url(#arrow)"/>
  <g transform="translate(330, 751)">
    <rect width="300" height="34" rx="5" fill="url(#normGrad)" stroke="#9C27B0" stroke-width="1" filter="url(#shadow)"/>
    <text x="150" y="14" text-anchor="middle" font-weight="600" fill="#6a1b9a">RMSNorm</text>
    <text x="150" y="27" text-anchor="middle" font-size="10" fill="#777777">output_norm.weight</text>
  </g>
  <line x1="480" y1="785" x2="480" y2="805" stroke="#555555" stroke-width="1.5" marker-end="url(#arrow)"/>
  <g transform="translate(330, 805)">
    <rect width="300" height="40" rx="6" fill="url(#globalGrad)" stroke="#C62828" stroke-width="1.2" filter="url(#shadow)"/>
    <text x="150" y="17" text-anchor="middle" font-weight="600" fill="#b71c1c">LM Head</text>
    <text x="150" y="32" text-anchor="middle" font-size="10" fill="#777777">output.weight</text>
  </g>
  <line x1="480" y1="845" x2="480" y2="865" stroke="#555555" stroke-width="1.5" marker-end="url(#arrow)"/>
  <g transform="translate(380, 865)">
    <rect width="200" height="32" rx="6" fill="#eeeeee" stroke="#9e9e9e" stroke-width="1"/>
    <text x="100" y="20" text-anchor="middle" font-weight="600" fill="#333333">Logits [n_vocab]</text>
  </g>
  <text x="30" y="927" font-size="11" fill="#666666"><tspan font-weight="600">Routing rule:</tspan> <tspan font-family="monospace" fill="#333333">1 == 1</tspan> -> true: mla / false: mla</text>
  <rect x="730" y="907" width="200" height="50" rx="5" fill="#f5f5f5" stroke="#bdbdbd" stroke-width="0.8"/>
  <text x="738" y="922" font-size="10" font-weight="600" fill="#666666">Tokens</text>
  <text x="738" y="935" font-size="9" fill="#999999" font-family="monospace">thinking: &lt;think&gt;...&lt;/think&gt;</text>
  <text x="738" y="948" font-size="9" fill="#999999" font-family="monospace">no-think: /nothink</text>
</svg>
