<svg viewBox="0 0 588 1041" xmlns="http://www.w3.org/2000/svg">
<style>
  text { font-family: 'Courier New', monospace; }
  .title { font-size: 20px; font-weight: bold; fill: #333333; font-family: system-ui, -apple-system, sans-serif; }
  .hdr   { font-size: 9px; font-weight: bold; fill: #333333; text-anchor: middle; dominant-baseline: middle; }
  .lbl   { font-size: 9px; fill: #888888; text-anchor: end; dominant-baseline: middle; }
  .tlbl  { font-size: 7px; fill: #000000; text-anchor: middle; dominant-baseline: middle; }
  .io    { font-size: 8px; font-weight: bold; fill: #888888; text-anchor: middle; dominant-baseline: middle; }
  .gtxt  { font-size: 9px; text-anchor: middle; dominant-baseline: middle; }
  .ltxt  { font-size: 8px; fill: #555555; dominant-baseline: middle; }
  .shdr  { font-size: 8px; font-weight: bold; fill: #333333; dominant-baseline: middle; }
  .etxt  { font-size: 6px; fill: #999999; text-anchor: middle; dominant-baseline: hanging; }
</style>
<defs>
  <linearGradient id="zm_full_attention" x1="0" y1="0" x2="0" y2="1">
    <stop offset="0%%" stop-color="#e3f2fd"/><stop offset="100%%" stop-color="#bbdefb"/>
  </linearGradient>
  <linearGradient id="zm_swa" x1="0" y1="0" x2="0" y2="1">
    <stop offset="0%%" stop-color="#e8f5e9"/><stop offset="100%%" stop-color="#c8e6c9"/>
  </linearGradient>
  <linearGradient id="zm_recurrent" x1="0" y1="0" x2="0" y2="1">
    <stop offset="0%%" stop-color="#e8f5e9"/><stop offset="100%%" stop-color="#c8e6c9"/>
  </linearGradient>
  <linearGradient id="zm_ffn" x1="0" y1="0" x2="0" y2="1">
    <stop offset="0%%" stop-color="#fff3e0"/><stop offset="100%%" stop-color="#ffe0b2"/>
  </linearGradient>
  <linearGradient id="zm_global" x1="0" y1="0" x2="0" y2="1">
    <stop offset="0%%" stop-color="#fce4ec"/><stop offset="100%%" stop-color="#f8bbd0"/>
  </linearGradient>
  <symbol id="blk-mla" overflow="visible">
  <rect x="0" y="0" width="110" height="40" fill="url(#zm_full_attention)" stroke="#1976D2" stroke-width="0.8" rx="2"/>
  <rect x="2" y="3" width="12" height="34" fill="#e1bee7" stroke="#9C27B0" stroke-width="0.5" rx="1"/>
  <text class="tlbl" x="8" y="20" transform="rotate(-90,8,20)">norm</text>
  <line x1="15" y1="0" x2="15" y2="40" stroke="#DDDDDD" stroke-width="0.7"/>
  <rect x="17" y="3" width="10" height="34" fill="#cce5f6" stroke="#1976D2" stroke-width="0.5" rx="1"/>
  <text class="tlbl" x="22" y="20" transform="rotate(-90,22,20)">b</text>
  <rect x="28" y="3" width="10" height="34" fill="#cce5f6" stroke="#1976D2" stroke-width="0.5" rx="1"/>
  <text class="tlbl" x="33" y="20" transform="rotate(-90,33,20)">mqa</text>
  <rect x="39" y="3" width="10" height="34" fill="#cce5f6" stroke="#1976D2" stroke-width="0.5" rx="1"/>
  <text class="tlbl" x="44" y="20" transform="rotate(-90,44,20)">norm</text>
  <rect x="50" y="3" width="10" height="34" fill="#cce5f6" stroke="#1976D2" stroke-width="0.5" rx="1"/>
  <text class="tlbl" x="55" y="20" transform="rotate(-90,55,20)">out</text>
  <rect x="61" y="3" width="10" height="34" fill="#cce5f6" stroke="#1976D2" stroke-width="0.5" rx="1"/>
  <text class="tlbl" x="66" y="20" transform="rotate(-90,66,20)">a</text>
  <rect x="72" y="3" width="10" height="34" fill="#cce5f6" stroke="#1976D2" stroke-width="0.5" rx="1"/>
  <text class="tlbl" x="77" y="20" transform="rotate(-90,77,20)">norm</text>
  <rect x="83" y="3" width="10" height="34" fill="#cce5f6" stroke="#1976D2" stroke-width="0.5" rx="1"/>
  <text class="tlbl" x="88" y="20" transform="rotate(-90,88,20)">b</text>
  <rect x="94" y="3" width="10" height="34" fill="#cce5f6" stroke="#1976D2" stroke-width="0.5" rx="1"/>
  <text class="tlbl" x="99" y="20" transform="rotate(-90,99,20)">b</text>
  </symbol>
  <symbol id="blk-mla-desc" overflow="visible">
  <use href="#blk-mla"/>
  <line x1="117" y1="20" x2="117" y2="44" stroke="#1976D2" stroke-width="0.8"/>
  <path d="M 117,44 L -10,44" fill="none" stroke="#1976D2" stroke-width="1.0" stroke-dasharray="2,3"/>
  <circle cx="-10" cy="44" r="4" fill="#AAAAAA"/>
  <text x="-10" y="44" text-anchor="middle" dominant-baseline="central" font-size="8" font-weight="bold" fill="#1976D2">+</text>
  </symbol>
  <symbol id="blk-mla-asc" overflow="visible">
  <use href="#blk-mla"/>
  <line x1="117" y1="20" x2="117" y2="-4" stroke="#1976D2" stroke-width="0.8"/>
  <path d="M 117,-4 L -10,-4" fill="none" stroke="#1976D2" stroke-width="1.0" stroke-dasharray="2,3"/>
  <circle cx="-10" cy="-4" r="4" fill="#AAAAAA"/>
  <text x="-10" y="-4" text-anchor="middle" dominant-baseline="central" font-size="8" font-weight="bold" fill="#1976D2">+</text>
  </symbol>
  <symbol id="ffn-moe" overflow="visible">
  <rect x="0" y="0" width="98" height="40" fill="url(#zm_ffn)" stroke="#EF6C00" stroke-width="0.8" rx="2"/>
  <rect x="2" y="3" width="12" height="34" fill="#e1bee7" stroke="#9C27B0" stroke-width="0.5" rx="1"/>
  <text class="tlbl" x="8" y="20" transform="rotate(-90,8,20)">norm</text>
  <line x1="15" y1="0" x2="15" y2="40" stroke="#DDDDDD" stroke-width="0.7"/>
  <rect x="17" y="3" width="6" height="34" fill="#ffddb8" stroke="#EF6C00" stroke-width="0.5" rx="1"/>
  <rect x="24" y="3" width="6" height="34" fill="#ffddb8" stroke="#EF6C00" stroke-width="0.5" rx="1"/>
  <rect x="31" y="3" width="6" height="34" fill="#ffddb8" stroke="#EF6C00" stroke-width="0.5" rx="1"/>
  <rect x="38" y="3" width="6" height="34" fill="#ffddb8" stroke="#EF6C00" stroke-width="0.5" rx="1"/>
  <rect x="45" y="3" width="6" height="34" fill="#ffddb8" stroke="#EF6C00" stroke-width="0.5" rx="1"/>
  <rect x="52" y="3" width="6" height="34" fill="#ffddb8" stroke="#EF6C00" stroke-width="0.5" rx="1"/>
  <rect x="59" y="3" width="6" height="34" fill="#ffddb8" stroke="#EF6C00" stroke-width="0.5" rx="1"/>
  <rect x="66" y="3" width="6" height="34" fill="#ffddb8" stroke="#EF6C00" stroke-width="0.5" rx="1"/>
  <rect x="73" y="3" width="6" height="34" fill="#ffddb8" stroke="#EF6C00" stroke-width="0.5" rx="1"/>
  <rect x="80" y="3" width="6" height="34" fill="#ffddb8" stroke="#EF6C00" stroke-width="0.5" rx="1"/>
  <line x1="98" y1="20" x2="108" y2="20" stroke="#AAAAAA" stroke-width="0.8"/>
  <polygon points="104,18 108,20 104,22" fill="#AAAAAA"/>
  </symbol>
  <symbol id="ffn-moe-desc" overflow="visible">
  <use href="#ffn-moe"/>
  <line x1="108" y1="20" x2="108" y2="52" stroke="#EF6C00" stroke-width="1.0"/>
  <path d="M 108,52 L -134,52" fill="none" stroke="#EF6C00" stroke-width="1.0" stroke-dasharray="2,3"/>
  <circle cx="-134" cy="52" r="4" fill="#AAAAAA"/>
  <text x="-134" y="52" text-anchor="middle" dominant-baseline="central" font-size="8" font-weight="bold" fill="#EF6C00">+</text>
  </symbol>
  <symbol id="ffn-moe-asc" overflow="visible">
  <use href="#ffn-moe"/>
  <line x1="108" y1="20" x2="108" y2="-12" stroke="#EF6C00" stroke-width="1.0"/>
  <path d="M 108,-12 L -134,-12" fill="none" stroke="#EF6C00" stroke-width="1.0" stroke-dasharray="2,3"/>
  <circle cx="-134" cy="-12" r="4" fill="#AAAAAA"/>
  <text x="-134" y="-12" text-anchor="middle" dominant-baseline="central" font-size="8" font-weight="bold" fill="#EF6C00">+</text>
  </symbol>
  <symbol id="row-chrome" overflow="visible">
  <circle cx="26" cy="0" r="2.5" fill="#888888"/>
  <line x1="26" y1="0" x2="36" y2="0" stroke="#AAAAAA" stroke-width="0.8"/>
  <polygon points="32,-2 36,0 32,2" fill="#AAAAAA"/>
  <line x1="146" y1="0" x2="160" y2="0" stroke="#AAAAAA" stroke-width="0.8"/>
  <polygon points="156,-2 160,0 156,2" fill="#AAAAAA"/>
  </symbol>
  <symbol id="global-row" overflow="visible">
  <line x1="26" y1="0" x2="36" y2="0" stroke="#AAAAAA" stroke-width="0.8"/>
  <polyline points="32,-2 36,0 32,2" fill="none" stroke="#AAAAAA" stroke-width="0.8"/>
  <rect x="36" y="-20" width="222" height="40" fill="url(#zm_global)" stroke="#C62828" stroke-width="0.8" rx="2"/>
  <rect x="38" y="-17" width="71" height="34" fill="#f8bbd0" stroke="#C62828" stroke-width="0.5" rx="1"/>
  <text class="tlbl" x="73" y="0">out</text>
  <rect x="110" y="-17" width="71" height="34" fill="#e1bee7" stroke="#9C27B0" stroke-width="0.5" rx="1"/>
  <text class="tlbl" x="145" y="0">norm</text>
  <rect x="182" y="-17" width="71" height="34" fill="#f8bbd0" stroke="#C62828" stroke-width="0.5" rx="1"/>
  <text class="tlbl" x="217" y="0">embd</text>
  <line x1="147" y1="-20" x2="147" y2="-36" stroke="#AAAAAA" stroke-width="0.8"/>
  <polyline points="144,-30 147,-36 150,-30" fill="none" stroke="#AAAAAA" stroke-width="1"/>
  <text class="io" x="147" y="-42">OUT</text>
  </symbol>
  <symbol id="legend" overflow="visible">
  <text style="font-size:9px;font-weight:bold;fill:#333333;font-family:'Courier New',monospace" x="4" y="-5">Legend</text>
  <rect width="170" height="84" fill="#f5f5f5" stroke="#bdbdbd" stroke-width="0.8" rx="2"/>
  <rect x="4" y="10" width="10" height="10" fill="url(#zm_full_attention)" stroke="#1976D2" stroke-width="0.8" rx="1"/>
  <text class="ltxt" x="18" y="15">mla</text>
  <rect x="4" y="26" width="10" height="10" fill="url(#zm_ffn)" stroke="#EF6C00" stroke-width="0.8" rx="1"/>
  <text class="ltxt" x="18" y="31">FFN (dense)</text>
  <rect x="4" y="42" width="10" height="10" fill="url(#zm_global)" stroke="#C62828" stroke-width="0.8" rx="1"/>
  <text class="ltxt" x="18" y="47">global</text>
  <rect x="4" y="58" width="10" height="10" fill="#e1bee7" stroke="#9C27B0" stroke-width="0.8" rx="1"/>
  <text class="ltxt" x="18" y="63">RMS norm</text>
  </symbol>
  <symbol id="summary" overflow="visible">
  <text style="font-size:9px;font-weight:bold;fill:#333333;font-family:'Courier New',monospace" x="4" y="-5">Summary</text>
  <rect width="170" height="60" fill="#f5f5f5" stroke="#bdbdbd" stroke-width="0.8" rx="2"/>
  <text class="shdr" x="4" y="11">57 modules</text>
  <text class="shdr" x="4" y="29">591 tensors</text>
  <text class="shdr" x="4" y="47">563 weights</text>
  </symbol>
</defs>
  <rect width="588" height="1041" fill="#fafafa" rx="8"/>

  <text class="title" x="279" y="32" text-anchor="middle">Deepseek2 Layers (moe variant)</text>
  <line x1="26" y1="54" x2="26" y2="890" stroke="#AAAAAA" stroke-width="1.5"/>
  <text class="io" x="26" y="42">IN</text>
  <polygon points="23,54 26,60 29,54" fill="#AAAAAA"/>
  <path d="M 26,890 L 26,915 L 316,915" fill="none" stroke="#AAAAAA" stroke-width="1.5"/>
  <polygon points="168,912 174,915 168,918" fill="#AAAAAA"/>
  <line x1="316" y1="915" x2="316" y2="890" stroke="#AAAAAA" stroke-width="1.5"/>
  <line x1="316" y1="890" x2="316" y2="122" stroke="#AAAAAA" stroke-width="1.5"/>
  <use href="#row-chrome" transform="translate(0,64)"/>
  <text class="lbl" x="21" y="64">0</text>
  <use href="#blk-mla-desc" transform="translate(36,44)"/>
  <use href="#ffn-moe-desc" transform="translate(160,44)"/>
  <polygon points="23,106 26,112 29,106" fill="#AAAAAA"/>
  <use href="#row-chrome" transform="translate(0,122)"/>
  <text class="lbl" x="21" y="122">1</text>
  <use href="#blk-mla-desc" transform="translate(36,102)"/>
  <use href="#ffn-moe-desc" transform="translate(160,102)"/>
  <polygon points="23,164 26,170 29,164" fill="#AAAAAA"/>
  <use href="#row-chrome" transform="translate(0,180)"/>
  <text class="lbl" x="21" y="180">2</text>
  <use href="#blk-mla-desc" transform="translate(36,160)"/>
  <use href="#ffn-moe-desc" transform="translate(160,160)"/>
  <polygon points="23,222 26,228 29,222" fill="#AAAAAA"/>
  <use href="#row-chrome" transform="translate(0,238)"/>
  <text class="lbl" x="21" y="238">3</text>
  <use href="#blk-mla-desc" transform="translate(36,218)"/>
  <use href="#ffn-moe-desc" transform="translate(160,218)"/>
  <polygon points="23,280 26,286 29,280" fill="#AAAAAA"/>
  <use href="#row-chrome" transform="translate(0,296)"/>
  <text class="lbl" x="21" y="296">4</text>
  <use href="#blk-mla-desc" transform="translate(36,276)"/>
  <use href="#ffn-moe-desc" transform="translate(160,276)"/>
  <polygon points="23,338 26,344 29,338" fill="#AAAAAA"/>
  <use href="#row-chrome" transform="translate(0,354)"/>
  <text class="lbl" x="21" y="354">5</text>
  <use href="#blk-mla-desc" transform="translate(36,334)"/>
  <use href="#ffn-moe-desc" transform="translate(160,334)"/>
  <polygon points="23,396 26,402 29,396" fill="#AAAAAA"/>
  <use href="#row-chrome" transform="translate(0,412)"/>
  <text class="lbl" x="21" y="412">6</text>
  <use href="#blk-mla-desc" transform="translate(36,392)"/>
  <use href="#ffn-moe-desc" transform="translate(160,392)"/>
  <polygon points="23,454 26,460 29,454" fill="#AAAAAA"/>
  <use href="#row-chrome" transform="translate(0,470)"/>
  <text class="lbl" x="21" y="470">7</text>
  <use href="#blk-mla-desc" transform="translate(36,450)"/>
  <use href="#ffn-moe-desc" transform="translate(160,450)"/>
  <polygon points="23,512 26,518 29,512" fill="#AAAAAA"/>
  <use href="#row-chrome" transform="translate(0,528)"/>
  <text class="lbl" x="21" y="528">8</text>
  <use href="#blk-mla-desc" transform="translate(36,508)"/>
  <use href="#ffn-moe-desc" transform="translate(160,508)"/>
  <polygon points="23,570 26,576 29,570" fill="#AAAAAA"/>
  <use href="#row-chrome" transform="translate(0,586)"/>
  <text class="lbl" x="21" y="586">9</text>
  <use href="#blk-mla-desc" transform="translate(36,566)"/>
  <use href="#ffn-moe-desc" transform="translate(160,566)"/>
  <polygon points="23,628 26,634 29,628" fill="#AAAAAA"/>
  <use href="#row-chrome" transform="translate(0,644)"/>
  <text class="lbl" x="21" y="644">10</text>
  <use href="#blk-mla-desc" transform="translate(36,624)"/>
  <use href="#ffn-moe-desc" transform="translate(160,624)"/>
  <polygon points="23,686 26,692 29,686" fill="#AAAAAA"/>
  <use href="#row-chrome" transform="translate(0,702)"/>
  <text class="lbl" x="21" y="702">11</text>
  <use href="#blk-mla-desc" transform="translate(36,682)"/>
  <use href="#ffn-moe-desc" transform="translate(160,682)"/>
  <polygon points="23,744 26,750 29,744" fill="#AAAAAA"/>
  <use href="#row-chrome" transform="translate(0,760)"/>
  <text class="lbl" x="21" y="760">12</text>
  <use href="#blk-mla-desc" transform="translate(36,740)"/>
  <use href="#ffn-moe-desc" transform="translate(160,740)"/>
  <polygon points="23,802 26,808 29,802" fill="#AAAAAA"/>
  <use href="#row-chrome" transform="translate(0,818)"/>
  <text class="lbl" x="21" y="818">13</text>
  <use href="#blk-mla-desc" transform="translate(36,798)"/>
  <use href="#ffn-moe-desc" transform="translate(160,798)"/>
  <polygon points="23,860 26,866 29,860" fill="#AAAAAA"/>
  <use href="#row-chrome" transform="translate(0,876)"/>
  <text class="lbl" x="21" y="876">14</text>
  <use href="#blk-mla-desc" transform="translate(36,856)"/>
  <use href="#ffn-moe-desc" transform="translate(160,856)"/>
  <use href="#row-chrome" transform="translate(290,876)"/>
  <text class="lbl" x="311" y="876">15</text>
  <use href="#blk-mla-asc" transform="translate(326,856)"/>
  <use href="#ffn-moe-asc" transform="translate(450,856)"/>
  <polygon points="313,834 316,828 319,834" fill="#AAAAAA"/>
  <use href="#row-chrome" transform="translate(290,818)"/>
  <text class="lbl" x="311" y="818">16</text>
  <use href="#blk-mla-asc" transform="translate(326,798)"/>
  <use href="#ffn-moe-asc" transform="translate(450,798)"/>
  <polygon points="313,776 316,770 319,776" fill="#AAAAAA"/>
  <use href="#row-chrome" transform="translate(290,760)"/>
  <text class="lbl" x="311" y="760">17</text>
  <use href="#blk-mla-asc" transform="translate(326,740)"/>
  <use href="#ffn-moe-asc" transform="translate(450,740)"/>
  <polygon points="313,718 316,712 319,718" fill="#AAAAAA"/>
  <use href="#row-chrome" transform="translate(290,702)"/>
  <text class="lbl" x="311" y="702">18</text>
  <use href="#blk-mla-asc" transform="translate(326,682)"/>
  <use href="#ffn-moe-asc" transform="translate(450,682)"/>
  <polygon points="313,660 316,654 319,660" fill="#AAAAAA"/>
  <use href="#row-chrome" transform="translate(290,644)"/>
  <text class="lbl" x="311" y="644">19</text>
  <use href="#blk-mla-asc" transform="translate(326,624)"/>
  <use href="#ffn-moe-asc" transform="translate(450,624)"/>
  <polygon points="313,602 316,596 319,602" fill="#AAAAAA"/>
  <use href="#row-chrome" transform="translate(290,586)"/>
  <text class="lbl" x="311" y="586">20</text>
  <use href="#blk-mla-asc" transform="translate(326,566)"/>
  <use href="#ffn-moe-asc" transform="translate(450,566)"/>
  <polygon points="313,544 316,538 319,544" fill="#AAAAAA"/>
  <use href="#row-chrome" transform="translate(290,528)"/>
  <text class="lbl" x="311" y="528">21</text>
  <use href="#blk-mla-asc" transform="translate(326,508)"/>
  <use href="#ffn-moe-asc" transform="translate(450,508)"/>
  <polygon points="313,486 316,480 319,486" fill="#AAAAAA"/>
  <use href="#row-chrome" transform="translate(290,470)"/>
  <text class="lbl" x="311" y="470">22</text>
  <use href="#blk-mla-asc" transform="translate(326,450)"/>
  <use href="#ffn-moe-asc" transform="translate(450,450)"/>
  <polygon points="313,428 316,422 319,428" fill="#AAAAAA"/>
  <use href="#row-chrome" transform="translate(290,412)"/>
  <text class="lbl" x="311" y="412">23</text>
  <use href="#blk-mla-asc" transform="translate(326,392)"/>
  <use href="#ffn-moe-asc" transform="translate(450,392)"/>
  <polygon points="313,370 316,364 319,370" fill="#AAAAAA"/>
  <use href="#row-chrome" transform="translate(290,354)"/>
  <text class="lbl" x="311" y="354">24</text>
  <use href="#blk-mla-asc" transform="translate(326,334)"/>
  <use href="#ffn-moe-asc" transform="translate(450,334)"/>
  <polygon points="313,312 316,306 319,312" fill="#AAAAAA"/>
  <use href="#row-chrome" transform="translate(290,296)"/>
  <text class="lbl" x="311" y="296">25</text>
  <use href="#blk-mla-asc" transform="translate(326,276)"/>
  <use href="#ffn-moe-asc" transform="translate(450,276)"/>
  <polygon points="313,254 316,248 319,254" fill="#AAAAAA"/>
  <use href="#row-chrome" transform="translate(290,238)"/>
  <text class="lbl" x="311" y="238">26</text>
  <use href="#blk-mla-asc" transform="translate(326,218)"/>
  <use href="#ffn-moe-asc" transform="translate(450,218)"/>
  <polygon points="313,196 316,190 319,196" fill="#AAAAAA"/>
  <use href="#row-chrome" transform="translate(290,180)"/>
  <text class="lbl" x="311" y="180">27</text>
  <use href="#blk-mla-asc" transform="translate(326,160)"/>
  <use href="#ffn-moe-asc" transform="translate(450,160)"/>
  <polygon points="313,138 316,132 319,138" fill="#AAAAAA"/>
  <use href="#global-row" transform="translate(290,122)"/>
  <use href="#legend" transform="translate(22,945)"/>
  <use href="#summary" transform="translate(312,945)"/>
</svg>
