<svg viewBox="0 0 844 903" xmlns="http://www.w3.org/2000/svg">
<style>
  text { font-family: 'Courier New', monospace; }
  .title { font-size: 20px; font-weight: bold; fill: #333333; font-family: system-ui, -apple-system, sans-serif; }
  .lbl   { font-size: 9px; fill: #888888; text-anchor: end; dominant-baseline: middle; }
  .tlbl  { font-size: 7px; fill: #000000; text-anchor: middle; dominant-baseline: middle; }
  .io    { font-size: 8px; font-weight: bold; fill: #888888; text-anchor: middle; dominant-baseline: middle; }
  .ltxt  { font-size: 8px; fill: #555555; dominant-baseline: middle; }
  .shdr  { font-size: 8px; font-weight: bold; fill: #333333; dominant-baseline: middle; }
</style>
  <defs>
    <linearGradient id="zm_recurrent" x1="0" y1="0" x2="0" y2="1">
      <stop offset="0%" stop-color="#e8f5e9"/><stop offset="100%" stop-color="#c8e6c9"/>
    </linearGradient>
    <linearGradient id="zm_full_attention" x1="0" y1="0" x2="0" y2="1">
      <stop offset="0%" stop-color="#e3f2fd"/><stop offset="100%" stop-color="#bbdefb"/>
    </linearGradient>
    <linearGradient id="zm_swa" x1="0" y1="0" x2="0" y2="1">
      <stop offset="0%" stop-color="#e8f5e9"/><stop offset="100%" stop-color="#c8e6c9"/>
    </linearGradient>
    <linearGradient id="zm_ffn" x1="0" y1="0" x2="0" y2="1">
      <stop offset="0%" stop-color="#fff3e0"/><stop offset="100%" stop-color="#ffe0b2"/>
    </linearGradient>
    <linearGradient id="zm_norm" x1="0" y1="0" x2="0" y2="1">
      <stop offset="0%" stop-color="#f3e5f5"/><stop offset="100%" stop-color="#e1bee7"/>
    </linearGradient>
    <linearGradient id="zm_global" x1="0" y1="0" x2="0" y2="1">
      <stop offset="0%" stop-color="#fce4ec"/><stop offset="100%" stop-color="#f8bbd0"/>
    </linearGradient>
  </defs>
<defs>
  <symbol id="blk-mla" overflow="visible">
  <rect x="0" y="0" width="110" height="40" fill="url(#zm_full_attention)" stroke="#1976D2" stroke-width="0.8" rx="2"/>
  <rect x="2" y="3" width="12" height="34" fill="#e1bee7" stroke="#9C27B0" stroke-width="0.5" rx="1"/>
  <text class="tlbl" x="8" y="20" transform="rotate(-90,8,20)">norm</text>
  <line x1="15" y1="0" x2="15" y2="40" stroke="#DDDDDD" stroke-width="0.7"/>
  <rect x="17" y="3" width="10" height="34" fill="#cce5f6" stroke="#1976D2" stroke-width="0.5" rx="1"/>
  <text class="tlbl" x="22" y="20" transform="rotate(-90,22,20)">b</text>
  <rect x="28" y="3" width="10" height="34" fill="#cce5f6" stroke="#1976D2" stroke-width="0.5" rx="1"/>
  <text class="tlbl" x="33" y="20" transform="rotate(-90,33,20)">mqa</text>
  <rect x="39" y="3" width="10" height="34" fill="#cce5f6" stroke="#1976D2" stroke-width="0.5" rx="1"/>
  <text class="tlbl" x="44" y="20" transform="rotate(-90,44,20)">norm</text>
  <rect x="50" y="3" width="10" height="34" fill="#cce5f6" stroke="#1976D2" stroke-width="0.5" rx="1"/>
  <text class="tlbl" x="55" y="20" transform="rotate(-90,55,20)">out</text>
  <rect x="61" y="3" width="10" height="34" fill="#cce5f6" stroke="#1976D2" stroke-width="0.5" rx="1"/>
  <text class="tlbl" x="66" y="20" transform="rotate(-90,66,20)">a</text>
  <rect x="72" y="3" width="10" height="34" fill="#cce5f6" stroke="#1976D2" stroke-width="0.5" rx="1"/>
  <text class="tlbl" x="77" y="20" transform="rotate(-90,77,20)">norm</text>
  <rect x="83" y="3" width="10" height="34" fill="#cce5f6" stroke="#1976D2" stroke-width="0.5" rx="1"/>
  <text class="tlbl" x="88" y="20" transform="rotate(-90,88,20)">b</text>
  <rect x="94" y="3" width="10" height="34" fill="#cce5f6" stroke="#1976D2" stroke-width="0.5" rx="1"/>
  <text class="tlbl" x="99" y="20" transform="rotate(-90,99,20)">b</text>
  </symbol>
  <symbol id="ffn-moe" overflow="visible">
  <rect x="0" y="0" width="98" height="40" fill="url(#zm_ffn)" stroke="#EF6C00" stroke-width="0.8" rx="2"/>
  <rect x="2" y="3" width="12" height="34" fill="#e1bee7" stroke="#9C27B0" stroke-width="0.5" rx="1"/>
  <text class="tlbl" x="8" y="20" transform="rotate(-90,8,20)">norm</text>
  <line x1="15" y1="0" x2="15" y2="40" stroke="#DDDDDD" stroke-width="0.7"/>
  <rect x="17" y="12" width="21" height="21" fill="#ffddb8" stroke="#EF6C00" stroke-width="0.5"/>
  <polygon points="17,12 22,7 43,7 38,12" fill="#ffe8cc" stroke="#EF6C00" stroke-width="0.5"/>
  <text class="tlbl" x="27" y="22">Dx</text>
  <rect x="43" y="12" width="21" height="21" fill="#ffddb8" stroke="#EF6C00" stroke-width="0.5"/>
  <polygon points="43,12 48,7 69,7 64,12" fill="#ffe8cc" stroke="#EF6C00" stroke-width="0.5"/>
  <text class="tlbl" x="53" y="22">Gx</text>
  <rect x="69" y="12" width="21" height="21" fill="#ffddb8" stroke="#EF6C00" stroke-width="0.5"/>
  <polygon points="69,12 74,7 95,7 90,12" fill="#ffe8cc" stroke="#EF6C00" stroke-width="0.5"/>
  <text class="tlbl" x="79" y="22">Ux</text>
  </symbol>
</defs>
  <rect width="844" height="903" fill="#fafafa" rx="8"/>

  <text class="title" x="314" y="32" text-anchor="middle">Deepseek2 Layers (moe variant)</text>
  <rect x="98" y="76" width="110" height="40" fill="url(#zm_global)" stroke="#C62828" stroke-width="0.8" rx="2"/>
  <rect x="100" y="79" width="106" height="34" fill="#f8bbd0" stroke="#C62828" stroke-width="0.5" rx="1"/>
  <text class="tlbl" x="153" y="96">embd</text>
  <text class="io" style="text-anchor:end" x="208" y="66">TOKEN(s) IN</text>
  <path d="M 153,66 L 135,66 L 135,76" fill="none" stroke="#AAAAAA" stroke-width="2.5" stroke-linejoin="miter"/>
  <polygon points="131,68 135,76 139,68" fill="#AAAAAA"/>
  <path d="M 98,96 L 8,96 L 8,150 L 22,150" fill="none" stroke="#AAAAAA" stroke-width="2.5" stroke-linejoin="miter"/>
  <polygon points="14,146 22,150 14,154" fill="#AAAAAA"/>
  <text class="lbl" x="20.5" y="138" dominant-baseline="text-before-edge">0</text>
  <use href="#blk-mla" transform="translate(22,130)"/>
  <use href="#ffn-moe" transform="translate(166,130)"/>
  <line x1="132" y1="150" x2="166" y2="150" stroke="#AAAAAA" stroke-width="2.5"/>
  <polygon points="158,146 166,150 158,154" fill="#AAAAAA"/>
  <path d="M 132,160 L 149,160 L 149,155" fill="none" stroke="#1976D2" stroke-width="1.0"/>
  <circle cx="149" cy="150" r="5" fill="#AAAAAA" stroke="none"/>
  <circle cx="149" cy="150" r="5" fill="none" stroke="#1976D2" stroke-width="1.2"/>
  <text x="149" y="150" text-anchor="middle" dominant-baseline="central" font-size="9" font-weight="bold" fill="#1976D2">+</text>
  <line x1="264" y1="150" x2="300" y2="150" stroke="#AAAAAA" stroke-width="2.5"/>
  <polygon points="292,146 300,150 292,154" fill="#AAAAAA"/>
  <path d="M 264,160 L 281,160 L 281,155" fill="none" stroke="#EF6C00" stroke-width="1.0"/>
  <circle cx="281" cy="150" r="5" fill="#AAAAAA" stroke="none"/>
  <circle cx="281" cy="150" r="5" fill="none" stroke="#EF6C00" stroke-width="1.2"/>
  <text x="281" y="150" text-anchor="middle" dominant-baseline="central" font-size="9" font-weight="bold" fill="#EF6C00">+</text>
  <path d="M 298,150 L 298,177 L 8,177 L 8,204 L 22,204" fill="none" stroke="#AAAAAA" stroke-width="2.5" stroke-linejoin="miter"/>
  <polygon points="14,200 22,204 14,208" fill="#AAAAAA"/>
  <polygon points="161,173 153,177 161,181" fill="#AAAAAA"/>
  <text class="lbl" x="20.5" y="192" dominant-baseline="text-before-edge">1</text>
  <use href="#blk-mla" transform="translate(22,184)"/>
  <use href="#ffn-moe" transform="translate(166,184)"/>
  <line x1="132" y1="204" x2="166" y2="204" stroke="#AAAAAA" stroke-width="2.5"/>
  <polygon points="158,200 166,204 158,208" fill="#AAAAAA"/>
  <path d="M 132,214 L 149,214 L 149,209" fill="none" stroke="#1976D2" stroke-width="1.0"/>
  <circle cx="149" cy="204" r="5" fill="#AAAAAA" stroke="none"/>
  <circle cx="149" cy="204" r="5" fill="none" stroke="#1976D2" stroke-width="1.2"/>
  <text x="149" y="204" text-anchor="middle" dominant-baseline="central" font-size="9" font-weight="bold" fill="#1976D2">+</text>
  <line x1="264" y1="204" x2="300" y2="204" stroke="#AAAAAA" stroke-width="2.5"/>
  <polygon points="292,200 300,204 292,208" fill="#AAAAAA"/>
  <path d="M 264,214 L 281,214 L 281,209" fill="none" stroke="#EF6C00" stroke-width="1.0"/>
  <circle cx="281" cy="204" r="5" fill="#AAAAAA" stroke="none"/>
  <circle cx="281" cy="204" r="5" fill="none" stroke="#EF6C00" stroke-width="1.2"/>
  <text x="281" y="204" text-anchor="middle" dominant-baseline="central" font-size="9" font-weight="bold" fill="#EF6C00">+</text>
  <path d="M 298,204 L 298,231 L 8,231 L 8,258 L 22,258" fill="none" stroke="#AAAAAA" stroke-width="2.5" stroke-linejoin="miter"/>
  <polygon points="14,254 22,258 14,262" fill="#AAAAAA"/>
  <polygon points="161,227 153,231 161,235" fill="#AAAAAA"/>
  <text class="lbl" x="20.5" y="246" dominant-baseline="text-before-edge">2</text>
  <use href="#blk-mla" transform="translate(22,238)"/>
  <use href="#ffn-moe" transform="translate(166,238)"/>
  <line x1="132" y1="258" x2="166" y2="258" stroke="#AAAAAA" stroke-width="2.5"/>
  <polygon points="158,254 166,258 158,262" fill="#AAAAAA"/>
  <path d="M 132,268 L 149,268 L 149,263" fill="none" stroke="#1976D2" stroke-width="1.0"/>
  <circle cx="149" cy="258" r="5" fill="#AAAAAA" stroke="none"/>
  <circle cx="149" cy="258" r="5" fill="none" stroke="#1976D2" stroke-width="1.2"/>
  <text x="149" y="258" text-anchor="middle" dominant-baseline="central" font-size="9" font-weight="bold" fill="#1976D2">+</text>
  <line x1="264" y1="258" x2="300" y2="258" stroke="#AAAAAA" stroke-width="2.5"/>
  <polygon points="292,254 300,258 292,262" fill="#AAAAAA"/>
  <path d="M 264,268 L 281,268 L 281,263" fill="none" stroke="#EF6C00" stroke-width="1.0"/>
  <circle cx="281" cy="258" r="5" fill="#AAAAAA" stroke="none"/>
  <circle cx="281" cy="258" r="5" fill="none" stroke="#EF6C00" stroke-width="1.2"/>
  <text x="281" y="258" text-anchor="middle" dominant-baseline="central" font-size="9" font-weight="bold" fill="#EF6C00">+</text>
  <path d="M 298,258 L 298,285 L 8,285 L 8,312 L 22,312" fill="none" stroke="#AAAAAA" stroke-width="2.5" stroke-linejoin="miter"/>
  <polygon points="14,308 22,312 14,316" fill="#AAAAAA"/>
  <polygon points="161,281 153,285 161,289" fill="#AAAAAA"/>
  <text class="lbl" x="20.5" y="300" dominant-baseline="text-before-edge">3</text>
  <use href="#blk-mla" transform="translate(22,292)"/>
  <use href="#ffn-moe" transform="translate(166,292)"/>
  <line x1="132" y1="312" x2="166" y2="312" stroke="#AAAAAA" stroke-width="2.5"/>
  <polygon points="158,308 166,312 158,316" fill="#AAAAAA"/>
  <path d="M 132,322 L 149,322 L 149,317" fill="none" stroke="#1976D2" stroke-width="1.0"/>
  <circle cx="149" cy="312" r="5" fill="#AAAAAA" stroke="none"/>
  <circle cx="149" cy="312" r="5" fill="none" stroke="#1976D2" stroke-width="1.2"/>
  <text x="149" y="312" text-anchor="middle" dominant-baseline="central" font-size="9" font-weight="bold" fill="#1976D2">+</text>
  <line x1="264" y1="312" x2="300" y2="312" stroke="#AAAAAA" stroke-width="2.5"/>
  <polygon points="292,308 300,312 292,316" fill="#AAAAAA"/>
  <path d="M 264,322 L 281,322 L 281,317" fill="none" stroke="#EF6C00" stroke-width="1.0"/>
  <circle cx="281" cy="312" r="5" fill="#AAAAAA" stroke="none"/>
  <circle cx="281" cy="312" r="5" fill="none" stroke="#EF6C00" stroke-width="1.2"/>
  <text x="281" y="312" text-anchor="middle" dominant-baseline="central" font-size="9" font-weight="bold" fill="#EF6C00">+</text>
  <path d="M 298,312 L 298,339 L 8,339 L 8,366 L 22,366" fill="none" stroke="#AAAAAA" stroke-width="2.5" stroke-linejoin="miter"/>
  <polygon points="14,362 22,366 14,370" fill="#AAAAAA"/>
  <polygon points="161,335 153,339 161,343" fill="#AAAAAA"/>
  <text class="lbl" x="20.5" y="354" dominant-baseline="text-before-edge">4</text>
  <use href="#blk-mla" transform="translate(22,346)"/>
  <use href="#ffn-moe" transform="translate(166,346)"/>
  <line x1="132" y1="366" x2="166" y2="366" stroke="#AAAAAA" stroke-width="2.5"/>
  <polygon points="158,362 166,366 158,370" fill="#AAAAAA"/>
  <path d="M 132,376 L 149,376 L 149,371" fill="none" stroke="#1976D2" stroke-width="1.0"/>
  <circle cx="149" cy="366" r="5" fill="#AAAAAA" stroke="none"/>
  <circle cx="149" cy="366" r="5" fill="none" stroke="#1976D2" stroke-width="1.2"/>
  <text x="149" y="366" text-anchor="middle" dominant-baseline="central" font-size="9" font-weight="bold" fill="#1976D2">+</text>
  <line x1="264" y1="366" x2="300" y2="366" stroke="#AAAAAA" stroke-width="2.5"/>
  <polygon points="292,362 300,366 292,370" fill="#AAAAAA"/>
  <path d="M 264,376 L 281,376 L 281,371" fill="none" stroke="#EF6C00" stroke-width="1.0"/>
  <circle cx="281" cy="366" r="5" fill="#AAAAAA" stroke="none"/>
  <circle cx="281" cy="366" r="5" fill="none" stroke="#EF6C00" stroke-width="1.2"/>
  <text x="281" y="366" text-anchor="middle" dominant-baseline="central" font-size="9" font-weight="bold" fill="#EF6C00">+</text>
  <path d="M 298,366 L 298,393 L 8,393 L 8,420 L 22,420" fill="none" stroke="#AAAAAA" stroke-width="2.5" stroke-linejoin="miter"/>
  <polygon points="14,416 22,420 14,424" fill="#AAAAAA"/>
  <polygon points="161,389 153,393 161,397" fill="#AAAAAA"/>
  <text class="lbl" x="20.5" y="408" dominant-baseline="text-before-edge">5</text>
  <use href="#blk-mla" transform="translate(22,400)"/>
  <use href="#ffn-moe" transform="translate(166,400)"/>
  <line x1="132" y1="420" x2="166" y2="420" stroke="#AAAAAA" stroke-width="2.5"/>
  <polygon points="158,416 166,420 158,424" fill="#AAAAAA"/>
  <path d="M 132,430 L 149,430 L 149,425" fill="none" stroke="#1976D2" stroke-width="1.0"/>
  <circle cx="149" cy="420" r="5" fill="#AAAAAA" stroke="none"/>
  <circle cx="149" cy="420" r="5" fill="none" stroke="#1976D2" stroke-width="1.2"/>
  <text x="149" y="420" text-anchor="middle" dominant-baseline="central" font-size="9" font-weight="bold" fill="#1976D2">+</text>
  <line x1="264" y1="420" x2="300" y2="420" stroke="#AAAAAA" stroke-width="2.5"/>
  <polygon points="292,416 300,420 292,424" fill="#AAAAAA"/>
  <path d="M 264,430 L 281,430 L 281,425" fill="none" stroke="#EF6C00" stroke-width="1.0"/>
  <circle cx="281" cy="420" r="5" fill="#AAAAAA" stroke="none"/>
  <circle cx="281" cy="420" r="5" fill="none" stroke="#EF6C00" stroke-width="1.2"/>
  <text x="281" y="420" text-anchor="middle" dominant-baseline="central" font-size="9" font-weight="bold" fill="#EF6C00">+</text>
  <path d="M 298,420 L 298,447 L 8,447 L 8,474 L 22,474" fill="none" stroke="#AAAAAA" stroke-width="2.5" stroke-linejoin="miter"/>
  <polygon points="14,470 22,474 14,478" fill="#AAAAAA"/>
  <polygon points="161,443 153,447 161,451" fill="#AAAAAA"/>
  <text class="lbl" x="20.5" y="462" dominant-baseline="text-before-edge">6</text>
  <use href="#blk-mla" transform="translate(22,454)"/>
  <use href="#ffn-moe" transform="translate(166,454)"/>
  <line x1="132" y1="474" x2="166" y2="474" stroke="#AAAAAA" stroke-width="2.5"/>
  <polygon points="158,470 166,474 158,478" fill="#AAAAAA"/>
  <path d="M 132,484 L 149,484 L 149,479" fill="none" stroke="#1976D2" stroke-width="1.0"/>
  <circle cx="149" cy="474" r="5" fill="#AAAAAA" stroke="none"/>
  <circle cx="149" cy="474" r="5" fill="none" stroke="#1976D2" stroke-width="1.2"/>
  <text x="149" y="474" text-anchor="middle" dominant-baseline="central" font-size="9" font-weight="bold" fill="#1976D2">+</text>
  <line x1="264" y1="474" x2="300" y2="474" stroke="#AAAAAA" stroke-width="2.5"/>
  <polygon points="292,470 300,474 292,478" fill="#AAAAAA"/>
  <path d="M 264,484 L 281,484 L 281,479" fill="none" stroke="#EF6C00" stroke-width="1.0"/>
  <circle cx="281" cy="474" r="5" fill="#AAAAAA" stroke="none"/>
  <circle cx="281" cy="474" r="5" fill="none" stroke="#EF6C00" stroke-width="1.2"/>
  <text x="281" y="474" text-anchor="middle" dominant-baseline="central" font-size="9" font-weight="bold" fill="#EF6C00">+</text>
  <path d="M 298,474 L 298,501 L 8,501 L 8,528 L 22,528" fill="none" stroke="#AAAAAA" stroke-width="2.5" stroke-linejoin="miter"/>
  <polygon points="14,524 22,528 14,532" fill="#AAAAAA"/>
  <polygon points="161,497 153,501 161,505" fill="#AAAAAA"/>
  <text class="lbl" x="20.5" y="516" dominant-baseline="text-before-edge">7</text>
  <use href="#blk-mla" transform="translate(22,508)"/>
  <use href="#ffn-moe" transform="translate(166,508)"/>
  <line x1="132" y1="528" x2="166" y2="528" stroke="#AAAAAA" stroke-width="2.5"/>
  <polygon points="158,524 166,528 158,532" fill="#AAAAAA"/>
  <path d="M 132,538 L 149,538 L 149,533" fill="none" stroke="#1976D2" stroke-width="1.0"/>
  <circle cx="149" cy="528" r="5" fill="#AAAAAA" stroke="none"/>
  <circle cx="149" cy="528" r="5" fill="none" stroke="#1976D2" stroke-width="1.2"/>
  <text x="149" y="528" text-anchor="middle" dominant-baseline="central" font-size="9" font-weight="bold" fill="#1976D2">+</text>
  <line x1="264" y1="528" x2="300" y2="528" stroke="#AAAAAA" stroke-width="2.5"/>
  <polygon points="292,524 300,528 292,532" fill="#AAAAAA"/>
  <path d="M 264,538 L 281,538 L 281,533" fill="none" stroke="#EF6C00" stroke-width="1.0"/>
  <circle cx="281" cy="528" r="5" fill="#AAAAAA" stroke="none"/>
  <circle cx="281" cy="528" r="5" fill="none" stroke="#EF6C00" stroke-width="1.2"/>
  <text x="281" y="528" text-anchor="middle" dominant-baseline="central" font-size="9" font-weight="bold" fill="#EF6C00">+</text>
  <path d="M 298,528 L 298,555 L 8,555 L 8,582 L 22,582" fill="none" stroke="#AAAAAA" stroke-width="2.5" stroke-linejoin="miter"/>
  <polygon points="14,578 22,582 14,586" fill="#AAAAAA"/>
  <polygon points="161,551 153,555 161,559" fill="#AAAAAA"/>
  <text class="lbl" x="20.5" y="570" dominant-baseline="text-before-edge">8</text>
  <use href="#blk-mla" transform="translate(22,562)"/>
  <use href="#ffn-moe" transform="translate(166,562)"/>
  <line x1="132" y1="582" x2="166" y2="582" stroke="#AAAAAA" stroke-width="2.5"/>
  <polygon points="158,578 166,582 158,586" fill="#AAAAAA"/>
  <path d="M 132,592 L 149,592 L 149,587" fill="none" stroke="#1976D2" stroke-width="1.0"/>
  <circle cx="149" cy="582" r="5" fill="#AAAAAA" stroke="none"/>
  <circle cx="149" cy="582" r="5" fill="none" stroke="#1976D2" stroke-width="1.2"/>
  <text x="149" y="582" text-anchor="middle" dominant-baseline="central" font-size="9" font-weight="bold" fill="#1976D2">+</text>
  <line x1="264" y1="582" x2="300" y2="582" stroke="#AAAAAA" stroke-width="2.5"/>
  <polygon points="292,578 300,582 292,586" fill="#AAAAAA"/>
  <path d="M 264,592 L 281,592 L 281,587" fill="none" stroke="#EF6C00" stroke-width="1.0"/>
  <circle cx="281" cy="582" r="5" fill="#AAAAAA" stroke="none"/>
  <circle cx="281" cy="582" r="5" fill="none" stroke="#EF6C00" stroke-width="1.2"/>
  <text x="281" y="582" text-anchor="middle" dominant-baseline="central" font-size="9" font-weight="bold" fill="#EF6C00">+</text>
  <path d="M 298,582 L 298,609 L 8,609 L 8,636 L 22,636" fill="none" stroke="#AAAAAA" stroke-width="2.5" stroke-linejoin="miter"/>
  <polygon points="14,632 22,636 14,640" fill="#AAAAAA"/>
  <polygon points="161,605 153,609 161,613" fill="#AAAAAA"/>
  <text class="lbl" x="20.5" y="624" dominant-baseline="text-before-edge">9</text>
  <use href="#blk-mla" transform="translate(22,616)"/>
  <use href="#ffn-moe" transform="translate(166,616)"/>
  <line x1="132" y1="636" x2="166" y2="636" stroke="#AAAAAA" stroke-width="2.5"/>
  <polygon points="158,632 166,636 158,640" fill="#AAAAAA"/>
  <path d="M 132,646 L 149,646 L 149,641" fill="none" stroke="#1976D2" stroke-width="1.0"/>
  <circle cx="149" cy="636" r="5" fill="#AAAAAA" stroke="none"/>
  <circle cx="149" cy="636" r="5" fill="none" stroke="#1976D2" stroke-width="1.2"/>
  <text x="149" y="636" text-anchor="middle" dominant-baseline="central" font-size="9" font-weight="bold" fill="#1976D2">+</text>
  <line x1="264" y1="636" x2="300" y2="636" stroke="#AAAAAA" stroke-width="2.5"/>
  <polygon points="292,632 300,636 292,640" fill="#AAAAAA"/>
  <path d="M 264,646 L 281,646 L 281,641" fill="none" stroke="#EF6C00" stroke-width="1.0"/>
  <circle cx="281" cy="636" r="5" fill="#AAAAAA" stroke="none"/>
  <circle cx="281" cy="636" r="5" fill="none" stroke="#EF6C00" stroke-width="1.2"/>
  <text x="281" y="636" text-anchor="middle" dominant-baseline="central" font-size="9" font-weight="bold" fill="#EF6C00">+</text>
  <path d="M 298,636 L 298,663 L 8,663 L 8,690 L 22,690" fill="none" stroke="#AAAAAA" stroke-width="2.5" stroke-linejoin="miter"/>
  <polygon points="14,686 22,690 14,694" fill="#AAAAAA"/>
  <polygon points="161,659 153,663 161,667" fill="#AAAAAA"/>
  <text class="lbl" x="20.5" y="678" dominant-baseline="text-before-edge">10</text>
  <use href="#blk-mla" transform="translate(22,670)"/>
  <use href="#ffn-moe" transform="translate(166,670)"/>
  <line x1="132" y1="690" x2="166" y2="690" stroke="#AAAAAA" stroke-width="2.5"/>
  <polygon points="158,686 166,690 158,694" fill="#AAAAAA"/>
  <path d="M 132,700 L 149,700 L 149,695" fill="none" stroke="#1976D2" stroke-width="1.0"/>
  <circle cx="149" cy="690" r="5" fill="#AAAAAA" stroke="none"/>
  <circle cx="149" cy="690" r="5" fill="none" stroke="#1976D2" stroke-width="1.2"/>
  <text x="149" y="690" text-anchor="middle" dominant-baseline="central" font-size="9" font-weight="bold" fill="#1976D2">+</text>
  <line x1="264" y1="690" x2="300" y2="690" stroke="#AAAAAA" stroke-width="2.5"/>
  <polygon points="292,686 300,690 292,694" fill="#AAAAAA"/>
  <path d="M 264,700 L 281,700 L 281,695" fill="none" stroke="#EF6C00" stroke-width="1.0"/>
  <circle cx="281" cy="690" r="5" fill="#AAAAAA" stroke="none"/>
  <circle cx="281" cy="690" r="5" fill="none" stroke="#EF6C00" stroke-width="1.2"/>
  <text x="281" y="690" text-anchor="middle" dominant-baseline="central" font-size="9" font-weight="bold" fill="#EF6C00">+</text>
  <path d="M 298,690 L 298,717 L 8,717 L 8,744 L 22,744" fill="none" stroke="#AAAAAA" stroke-width="2.5" stroke-linejoin="miter"/>
  <polygon points="14,740 22,744 14,748" fill="#AAAAAA"/>
  <polygon points="161,713 153,717 161,721" fill="#AAAAAA"/>
  <text class="lbl" x="20.5" y="732" dominant-baseline="text-before-edge">11</text>
  <use href="#blk-mla" transform="translate(22,724)"/>
  <use href="#ffn-moe" transform="translate(166,724)"/>
  <line x1="132" y1="744" x2="166" y2="744" stroke="#AAAAAA" stroke-width="2.5"/>
  <polygon points="158,740 166,744 158,748" fill="#AAAAAA"/>
  <path d="M 132,754 L 149,754 L 149,749" fill="none" stroke="#1976D2" stroke-width="1.0"/>
  <circle cx="149" cy="744" r="5" fill="#AAAAAA" stroke="none"/>
  <circle cx="149" cy="744" r="5" fill="none" stroke="#1976D2" stroke-width="1.2"/>
  <text x="149" y="744" text-anchor="middle" dominant-baseline="central" font-size="9" font-weight="bold" fill="#1976D2">+</text>
  <line x1="264" y1="744" x2="300" y2="744" stroke="#AAAAAA" stroke-width="2.5"/>
  <polygon points="292,740 300,744 292,748" fill="#AAAAAA"/>
  <path d="M 264,754 L 281,754 L 281,749" fill="none" stroke="#EF6C00" stroke-width="1.0"/>
  <circle cx="281" cy="744" r="5" fill="#AAAAAA" stroke="none"/>
  <circle cx="281" cy="744" r="5" fill="none" stroke="#EF6C00" stroke-width="1.2"/>
  <text x="281" y="744" text-anchor="middle" dominant-baseline="central" font-size="9" font-weight="bold" fill="#EF6C00">+</text>
  <path d="M 298,744 L 298,771 L 8,771 L 8,798 L 22,798" fill="none" stroke="#AAAAAA" stroke-width="2.5" stroke-linejoin="miter"/>
  <polygon points="14,794 22,798 14,802" fill="#AAAAAA"/>
  <polygon points="161,767 153,771 161,775" fill="#AAAAAA"/>
  <text class="lbl" x="20.5" y="786" dominant-baseline="text-before-edge">12</text>
  <use href="#blk-mla" transform="translate(22,778)"/>
  <use href="#ffn-moe" transform="translate(166,778)"/>
  <line x1="132" y1="798" x2="166" y2="798" stroke="#AAAAAA" stroke-width="2.5"/>
  <polygon points="158,794 166,798 158,802" fill="#AAAAAA"/>
  <path d="M 132,808 L 149,808 L 149,803" fill="none" stroke="#1976D2" stroke-width="1.0"/>
  <circle cx="149" cy="798" r="5" fill="#AAAAAA" stroke="none"/>
  <circle cx="149" cy="798" r="5" fill="none" stroke="#1976D2" stroke-width="1.2"/>
  <text x="149" y="798" text-anchor="middle" dominant-baseline="central" font-size="9" font-weight="bold" fill="#1976D2">+</text>
  <line x1="264" y1="798" x2="300" y2="798" stroke="#AAAAAA" stroke-width="2.5"/>
  <polygon points="292,794 300,798 292,802" fill="#AAAAAA"/>
  <path d="M 264,808 L 281,808 L 281,803" fill="none" stroke="#EF6C00" stroke-width="1.0"/>
  <circle cx="281" cy="798" r="5" fill="#AAAAAA" stroke="none"/>
  <circle cx="281" cy="798" r="5" fill="none" stroke="#EF6C00" stroke-width="1.2"/>
  <text x="281" y="798" text-anchor="middle" dominant-baseline="central" font-size="9" font-weight="bold" fill="#EF6C00">+</text>
  <path d="M 298,798 L 298,825 L 8,825 L 8,852 L 22,852" fill="none" stroke="#AAAAAA" stroke-width="2.5" stroke-linejoin="miter"/>
  <polygon points="14,848 22,852 14,856" fill="#AAAAAA"/>
  <polygon points="161,821 153,825 161,829" fill="#AAAAAA"/>
  <text class="lbl" x="20.5" y="840" dominant-baseline="text-before-edge">13</text>
  <use href="#blk-mla" transform="translate(22,832)"/>
  <use href="#ffn-moe" transform="translate(166,832)"/>
  <line x1="132" y1="852" x2="166" y2="852" stroke="#AAAAAA" stroke-width="2.5"/>
  <polygon points="158,848 166,852 158,856" fill="#AAAAAA"/>
  <path d="M 132,862 L 149,862 L 149,857" fill="none" stroke="#1976D2" stroke-width="1.0"/>
  <circle cx="149" cy="852" r="5" fill="#AAAAAA" stroke="none"/>
  <circle cx="149" cy="852" r="5" fill="none" stroke="#1976D2" stroke-width="1.2"/>
  <text x="149" y="852" text-anchor="middle" dominant-baseline="central" font-size="9" font-weight="bold" fill="#1976D2">+</text>
  <line x1="264" y1="852" x2="300" y2="852" stroke="#AAAAAA" stroke-width="2.5"/>
  <polygon points="292,848 300,852 292,856" fill="#AAAAAA"/>
  <path d="M 264,862 L 281,862 L 281,857" fill="none" stroke="#EF6C00" stroke-width="1.0"/>
  <circle cx="281" cy="852" r="5" fill="#AAAAAA" stroke="none"/>
  <circle cx="281" cy="852" r="5" fill="none" stroke="#EF6C00" stroke-width="1.2"/>
  <text x="281" y="852" text-anchor="middle" dominant-baseline="central" font-size="9" font-weight="bold" fill="#EF6C00">+</text>
  <line x1="298" y1="852" x2="352" y2="852" stroke="#AAAAAA" stroke-width="2.5" stroke-linecap="square"/>
  <polygon points="344,848 352,852 344,856" fill="#AAAAAA"/>
  <text class="lbl" x="350.5" y="840" dominant-baseline="text-before-edge">14</text>
  <use href="#blk-mla" transform="translate(352,832)"/>
  <use href="#ffn-moe" transform="translate(496,832)"/>
  <line x1="462" y1="852" x2="496" y2="852" stroke="#AAAAAA" stroke-width="2.5"/>
  <polygon points="488,848 496,852 488,856" fill="#AAAAAA"/>
  <path d="M 462,862 L 479,862 L 479,857" fill="none" stroke="#1976D2" stroke-width="1.0"/>
  <circle cx="479" cy="852" r="5" fill="#AAAAAA" stroke="none"/>
  <circle cx="479" cy="852" r="5" fill="none" stroke="#1976D2" stroke-width="1.2"/>
  <text x="479" y="852" text-anchor="middle" dominant-baseline="central" font-size="9" font-weight="bold" fill="#1976D2">+</text>
  <line x1="594" y1="852" x2="630" y2="852" stroke="#AAAAAA" stroke-width="2.5"/>
  <polygon points="622,848 630,852 622,856" fill="#AAAAAA"/>
  <path d="M 594,862 L 611,862 L 611,857" fill="none" stroke="#EF6C00" stroke-width="1.0"/>
  <circle cx="611" cy="852" r="5" fill="#AAAAAA" stroke="none"/>
  <circle cx="611" cy="852" r="5" fill="none" stroke="#EF6C00" stroke-width="1.2"/>
  <text x="611" y="852" text-anchor="middle" dominant-baseline="central" font-size="9" font-weight="bold" fill="#EF6C00">+</text>
  <path d="M 628,852 L 628,825 L 338,825 L 338,798 L 352,798" fill="none" stroke="#AAAAAA" stroke-width="2.5" stroke-linejoin="miter"/>
  <polygon points="344,794 352,798 344,802" fill="#AAAAAA"/>
  <polygon points="491,821 483,825 491,829" fill="#AAAAAA"/>
  <text class="lbl" x="350.5" y="786" dominant-baseline="text-before-edge">15</text>
  <use href="#blk-mla" transform="translate(352,778)"/>
  <use href="#ffn-moe" transform="translate(496,778)"/>
  <line x1="462" y1="798" x2="496" y2="798" stroke="#AAAAAA" stroke-width="2.5"/>
  <polygon points="488,794 496,798 488,802" fill="#AAAAAA"/>
  <path d="M 462,808 L 479,808 L 479,803" fill="none" stroke="#1976D2" stroke-width="1.0"/>
  <circle cx="479" cy="798" r="5" fill="#AAAAAA" stroke="none"/>
  <circle cx="479" cy="798" r="5" fill="none" stroke="#1976D2" stroke-width="1.2"/>
  <text x="479" y="798" text-anchor="middle" dominant-baseline="central" font-size="9" font-weight="bold" fill="#1976D2">+</text>
  <line x1="594" y1="798" x2="630" y2="798" stroke="#AAAAAA" stroke-width="2.5"/>
  <polygon points="622,794 630,798 622,802" fill="#AAAAAA"/>
  <path d="M 594,808 L 611,808 L 611,803" fill="none" stroke="#EF6C00" stroke-width="1.0"/>
  <circle cx="611" cy="798" r="5" fill="#AAAAAA" stroke="none"/>
  <circle cx="611" cy="798" r="5" fill="none" stroke="#EF6C00" stroke-width="1.2"/>
  <text x="611" y="798" text-anchor="middle" dominant-baseline="central" font-size="9" font-weight="bold" fill="#EF6C00">+</text>
  <path d="M 628,798 L 628,771 L 338,771 L 338,744 L 352,744" fill="none" stroke="#AAAAAA" stroke-width="2.5" stroke-linejoin="miter"/>
  <polygon points="344,740 352,744 344,748" fill="#AAAAAA"/>
  <polygon points="491,767 483,771 491,775" fill="#AAAAAA"/>
  <text class="lbl" x="350.5" y="732" dominant-baseline="text-before-edge">16</text>
  <use href="#blk-mla" transform="translate(352,724)"/>
  <use href="#ffn-moe" transform="translate(496,724)"/>
  <line x1="462" y1="744" x2="496" y2="744" stroke="#AAAAAA" stroke-width="2.5"/>
  <polygon points="488,740 496,744 488,748" fill="#AAAAAA"/>
  <path d="M 462,754 L 479,754 L 479,749" fill="none" stroke="#1976D2" stroke-width="1.0"/>
  <circle cx="479" cy="744" r="5" fill="#AAAAAA" stroke="none"/>
  <circle cx="479" cy="744" r="5" fill="none" stroke="#1976D2" stroke-width="1.2"/>
  <text x="479" y="744" text-anchor="middle" dominant-baseline="central" font-size="9" font-weight="bold" fill="#1976D2">+</text>
  <line x1="594" y1="744" x2="630" y2="744" stroke="#AAAAAA" stroke-width="2.5"/>
  <polygon points="622,740 630,744 622,748" fill="#AAAAAA"/>
  <path d="M 594,754 L 611,754 L 611,749" fill="none" stroke="#EF6C00" stroke-width="1.0"/>
  <circle cx="611" cy="744" r="5" fill="#AAAAAA" stroke="none"/>
  <circle cx="611" cy="744" r="5" fill="none" stroke="#EF6C00" stroke-width="1.2"/>
  <text x="611" y="744" text-anchor="middle" dominant-baseline="central" font-size="9" font-weight="bold" fill="#EF6C00">+</text>
  <path d="M 628,744 L 628,717 L 338,717 L 338,690 L 352,690" fill="none" stroke="#AAAAAA" stroke-width="2.5" stroke-linejoin="miter"/>
  <polygon points="344,686 352,690 344,694" fill="#AAAAAA"/>
  <polygon points="491,713 483,717 491,721" fill="#AAAAAA"/>
  <text class="lbl" x="350.5" y="678" dominant-baseline="text-before-edge">17</text>
  <use href="#blk-mla" transform="translate(352,670)"/>
  <use href="#ffn-moe" transform="translate(496,670)"/>
  <line x1="462" y1="690" x2="496" y2="690" stroke="#AAAAAA" stroke-width="2.5"/>
  <polygon points="488,686 496,690 488,694" fill="#AAAAAA"/>
  <path d="M 462,700 L 479,700 L 479,695" fill="none" stroke="#1976D2" stroke-width="1.0"/>
  <circle cx="479" cy="690" r="5" fill="#AAAAAA" stroke="none"/>
  <circle cx="479" cy="690" r="5" fill="none" stroke="#1976D2" stroke-width="1.2"/>
  <text x="479" y="690" text-anchor="middle" dominant-baseline="central" font-size="9" font-weight="bold" fill="#1976D2">+</text>
  <line x1="594" y1="690" x2="630" y2="690" stroke="#AAAAAA" stroke-width="2.5"/>
  <polygon points="622,686 630,690 622,694" fill="#AAAAAA"/>
  <path d="M 594,700 L 611,700 L 611,695" fill="none" stroke="#EF6C00" stroke-width="1.0"/>
  <circle cx="611" cy="690" r="5" fill="#AAAAAA" stroke="none"/>
  <circle cx="611" cy="690" r="5" fill="none" stroke="#EF6C00" stroke-width="1.2"/>
  <text x="611" y="690" text-anchor="middle" dominant-baseline="central" font-size="9" font-weight="bold" fill="#EF6C00">+</text>
  <path d="M 628,690 L 628,663 L 338,663 L 338,636 L 352,636" fill="none" stroke="#AAAAAA" stroke-width="2.5" stroke-linejoin="miter"/>
  <polygon points="344,632 352,636 344,640" fill="#AAAAAA"/>
  <polygon points="491,659 483,663 491,667" fill="#AAAAAA"/>
  <text class="lbl" x="350.5" y="624" dominant-baseline="text-before-edge">18</text>
  <use href="#blk-mla" transform="translate(352,616)"/>
  <use href="#ffn-moe" transform="translate(496,616)"/>
  <line x1="462" y1="636" x2="496" y2="636" stroke="#AAAAAA" stroke-width="2.5"/>
  <polygon points="488,632 496,636 488,640" fill="#AAAAAA"/>
  <path d="M 462,646 L 479,646 L 479,641" fill="none" stroke="#1976D2" stroke-width="1.0"/>
  <circle cx="479" cy="636" r="5" fill="#AAAAAA" stroke="none"/>
  <circle cx="479" cy="636" r="5" fill="none" stroke="#1976D2" stroke-width="1.2"/>
  <text x="479" y="636" text-anchor="middle" dominant-baseline="central" font-size="9" font-weight="bold" fill="#1976D2">+</text>
  <line x1="594" y1="636" x2="630" y2="636" stroke="#AAAAAA" stroke-width="2.5"/>
  <polygon points="622,632 630,636 622,640" fill="#AAAAAA"/>
  <path d="M 594,646 L 611,646 L 611,641" fill="none" stroke="#EF6C00" stroke-width="1.0"/>
  <circle cx="611" cy="636" r="5" fill="#AAAAAA" stroke="none"/>
  <circle cx="611" cy="636" r="5" fill="none" stroke="#EF6C00" stroke-width="1.2"/>
  <text x="611" y="636" text-anchor="middle" dominant-baseline="central" font-size="9" font-weight="bold" fill="#EF6C00">+</text>
  <path d="M 628,636 L 628,609 L 338,609 L 338,582 L 352,582" fill="none" stroke="#AAAAAA" stroke-width="2.5" stroke-linejoin="miter"/>
  <polygon points="344,578 352,582 344,586" fill="#AAAAAA"/>
  <polygon points="491,605 483,609 491,613" fill="#AAAAAA"/>
  <text class="lbl" x="350.5" y="570" dominant-baseline="text-before-edge">19</text>
  <use href="#blk-mla" transform="translate(352,562)"/>
  <use href="#ffn-moe" transform="translate(496,562)"/>
  <line x1="462" y1="582" x2="496" y2="582" stroke="#AAAAAA" stroke-width="2.5"/>
  <polygon points="488,578 496,582 488,586" fill="#AAAAAA"/>
  <path d="M 462,592 L 479,592 L 479,587" fill="none" stroke="#1976D2" stroke-width="1.0"/>
  <circle cx="479" cy="582" r="5" fill="#AAAAAA" stroke="none"/>
  <circle cx="479" cy="582" r="5" fill="none" stroke="#1976D2" stroke-width="1.2"/>
  <text x="479" y="582" text-anchor="middle" dominant-baseline="central" font-size="9" font-weight="bold" fill="#1976D2">+</text>
  <line x1="594" y1="582" x2="630" y2="582" stroke="#AAAAAA" stroke-width="2.5"/>
  <polygon points="622,578 630,582 622,586" fill="#AAAAAA"/>
  <path d="M 594,592 L 611,592 L 611,587" fill="none" stroke="#EF6C00" stroke-width="1.0"/>
  <circle cx="611" cy="582" r="5" fill="#AAAAAA" stroke="none"/>
  <circle cx="611" cy="582" r="5" fill="none" stroke="#EF6C00" stroke-width="1.2"/>
  <text x="611" y="582" text-anchor="middle" dominant-baseline="central" font-size="9" font-weight="bold" fill="#EF6C00">+</text>
  <path d="M 628,582 L 628,555 L 338,555 L 338,528 L 352,528" fill="none" stroke="#AAAAAA" stroke-width="2.5" stroke-linejoin="miter"/>
  <polygon points="344,524 352,528 344,532" fill="#AAAAAA"/>
  <polygon points="491,551 483,555 491,559" fill="#AAAAAA"/>
  <text class="lbl" x="350.5" y="516" dominant-baseline="text-before-edge">20</text>
  <use href="#blk-mla" transform="translate(352,508)"/>
  <use href="#ffn-moe" transform="translate(496,508)"/>
  <line x1="462" y1="528" x2="496" y2="528" stroke="#AAAAAA" stroke-width="2.5"/>
  <polygon points="488,524 496,528 488,532" fill="#AAAAAA"/>
  <path d="M 462,538 L 479,538 L 479,533" fill="none" stroke="#1976D2" stroke-width="1.0"/>
  <circle cx="479" cy="528" r="5" fill="#AAAAAA" stroke="none"/>
  <circle cx="479" cy="528" r="5" fill="none" stroke="#1976D2" stroke-width="1.2"/>
  <text x="479" y="528" text-anchor="middle" dominant-baseline="central" font-size="9" font-weight="bold" fill="#1976D2">+</text>
  <line x1="594" y1="528" x2="630" y2="528" stroke="#AAAAAA" stroke-width="2.5"/>
  <polygon points="622,524 630,528 622,532" fill="#AAAAAA"/>
  <path d="M 594,538 L 611,538 L 611,533" fill="none" stroke="#EF6C00" stroke-width="1.0"/>
  <circle cx="611" cy="528" r="5" fill="#AAAAAA" stroke="none"/>
  <circle cx="611" cy="528" r="5" fill="none" stroke="#EF6C00" stroke-width="1.2"/>
  <text x="611" y="528" text-anchor="middle" dominant-baseline="central" font-size="9" font-weight="bold" fill="#EF6C00">+</text>
  <path d="M 628,528 L 628,501 L 338,501 L 338,474 L 352,474" fill="none" stroke="#AAAAAA" stroke-width="2.5" stroke-linejoin="miter"/>
  <polygon points="344,470 352,474 344,478" fill="#AAAAAA"/>
  <polygon points="491,497 483,501 491,505" fill="#AAAAAA"/>
  <text class="lbl" x="350.5" y="462" dominant-baseline="text-before-edge">21</text>
  <use href="#blk-mla" transform="translate(352,454)"/>
  <use href="#ffn-moe" transform="translate(496,454)"/>
  <line x1="462" y1="474" x2="496" y2="474" stroke="#AAAAAA" stroke-width="2.5"/>
  <polygon points="488,470 496,474 488,478" fill="#AAAAAA"/>
  <path d="M 462,484 L 479,484 L 479,479" fill="none" stroke="#1976D2" stroke-width="1.0"/>
  <circle cx="479" cy="474" r="5" fill="#AAAAAA" stroke="none"/>
  <circle cx="479" cy="474" r="5" fill="none" stroke="#1976D2" stroke-width="1.2"/>
  <text x="479" y="474" text-anchor="middle" dominant-baseline="central" font-size="9" font-weight="bold" fill="#1976D2">+</text>
  <line x1="594" y1="474" x2="630" y2="474" stroke="#AAAAAA" stroke-width="2.5"/>
  <polygon points="622,470 630,474 622,478" fill="#AAAAAA"/>
  <path d="M 594,484 L 611,484 L 611,479" fill="none" stroke="#EF6C00" stroke-width="1.0"/>
  <circle cx="611" cy="474" r="5" fill="#AAAAAA" stroke="none"/>
  <circle cx="611" cy="474" r="5" fill="none" stroke="#EF6C00" stroke-width="1.2"/>
  <text x="611" y="474" text-anchor="middle" dominant-baseline="central" font-size="9" font-weight="bold" fill="#EF6C00">+</text>
  <path d="M 628,474 L 628,447 L 338,447 L 338,420 L 352,420" fill="none" stroke="#AAAAAA" stroke-width="2.5" stroke-linejoin="miter"/>
  <polygon points="344,416 352,420 344,424" fill="#AAAAAA"/>
  <polygon points="491,443 483,447 491,451" fill="#AAAAAA"/>
  <text class="lbl" x="350.5" y="408" dominant-baseline="text-before-edge">22</text>
  <use href="#blk-mla" transform="translate(352,400)"/>
  <use href="#ffn-moe" transform="translate(496,400)"/>
  <line x1="462" y1="420" x2="496" y2="420" stroke="#AAAAAA" stroke-width="2.5"/>
  <polygon points="488,416 496,420 488,424" fill="#AAAAAA"/>
  <path d="M 462,430 L 479,430 L 479,425" fill="none" stroke="#1976D2" stroke-width="1.0"/>
  <circle cx="479" cy="420" r="5" fill="#AAAAAA" stroke="none"/>
  <circle cx="479" cy="420" r="5" fill="none" stroke="#1976D2" stroke-width="1.2"/>
  <text x="479" y="420" text-anchor="middle" dominant-baseline="central" font-size="9" font-weight="bold" fill="#1976D2">+</text>
  <line x1="594" y1="420" x2="630" y2="420" stroke="#AAAAAA" stroke-width="2.5"/>
  <polygon points="622,416 630,420 622,424" fill="#AAAAAA"/>
  <path d="M 594,430 L 611,430 L 611,425" fill="none" stroke="#EF6C00" stroke-width="1.0"/>
  <circle cx="611" cy="420" r="5" fill="#AAAAAA" stroke="none"/>
  <circle cx="611" cy="420" r="5" fill="none" stroke="#EF6C00" stroke-width="1.2"/>
  <text x="611" y="420" text-anchor="middle" dominant-baseline="central" font-size="9" font-weight="bold" fill="#EF6C00">+</text>
  <path d="M 628,420 L 628,393 L 338,393 L 338,366 L 352,366" fill="none" stroke="#AAAAAA" stroke-width="2.5" stroke-linejoin="miter"/>
  <polygon points="344,362 352,366 344,370" fill="#AAAAAA"/>
  <polygon points="491,389 483,393 491,397" fill="#AAAAAA"/>
  <text class="lbl" x="350.5" y="354" dominant-baseline="text-before-edge">23</text>
  <use href="#blk-mla" transform="translate(352,346)"/>
  <use href="#ffn-moe" transform="translate(496,346)"/>
  <line x1="462" y1="366" x2="496" y2="366" stroke="#AAAAAA" stroke-width="2.5"/>
  <polygon points="488,362 496,366 488,370" fill="#AAAAAA"/>
  <path d="M 462,376 L 479,376 L 479,371" fill="none" stroke="#1976D2" stroke-width="1.0"/>
  <circle cx="479" cy="366" r="5" fill="#AAAAAA" stroke="none"/>
  <circle cx="479" cy="366" r="5" fill="none" stroke="#1976D2" stroke-width="1.2"/>
  <text x="479" y="366" text-anchor="middle" dominant-baseline="central" font-size="9" font-weight="bold" fill="#1976D2">+</text>
  <line x1="594" y1="366" x2="630" y2="366" stroke="#AAAAAA" stroke-width="2.5"/>
  <polygon points="622,362 630,366 622,370" fill="#AAAAAA"/>
  <path d="M 594,376 L 611,376 L 611,371" fill="none" stroke="#EF6C00" stroke-width="1.0"/>
  <circle cx="611" cy="366" r="5" fill="#AAAAAA" stroke="none"/>
  <circle cx="611" cy="366" r="5" fill="none" stroke="#EF6C00" stroke-width="1.2"/>
  <text x="611" y="366" text-anchor="middle" dominant-baseline="central" font-size="9" font-weight="bold" fill="#EF6C00">+</text>
  <path d="M 628,366 L 628,339 L 338,339 L 338,312 L 352,312" fill="none" stroke="#AAAAAA" stroke-width="2.5" stroke-linejoin="miter"/>
  <polygon points="344,308 352,312 344,316" fill="#AAAAAA"/>
  <polygon points="491,335 483,339 491,343" fill="#AAAAAA"/>
  <text class="lbl" x="350.5" y="300" dominant-baseline="text-before-edge">24</text>
  <use href="#blk-mla" transform="translate(352,292)"/>
  <use href="#ffn-moe" transform="translate(496,292)"/>
  <line x1="462" y1="312" x2="496" y2="312" stroke="#AAAAAA" stroke-width="2.5"/>
  <polygon points="488,308 496,312 488,316" fill="#AAAAAA"/>
  <path d="M 462,322 L 479,322 L 479,317" fill="none" stroke="#1976D2" stroke-width="1.0"/>
  <circle cx="479" cy="312" r="5" fill="#AAAAAA" stroke="none"/>
  <circle cx="479" cy="312" r="5" fill="none" stroke="#1976D2" stroke-width="1.2"/>
  <text x="479" y="312" text-anchor="middle" dominant-baseline="central" font-size="9" font-weight="bold" fill="#1976D2">+</text>
  <line x1="594" y1="312" x2="630" y2="312" stroke="#AAAAAA" stroke-width="2.5"/>
  <polygon points="622,308 630,312 622,316" fill="#AAAAAA"/>
  <path d="M 594,322 L 611,322 L 611,317" fill="none" stroke="#EF6C00" stroke-width="1.0"/>
  <circle cx="611" cy="312" r="5" fill="#AAAAAA" stroke="none"/>
  <circle cx="611" cy="312" r="5" fill="none" stroke="#EF6C00" stroke-width="1.2"/>
  <text x="611" y="312" text-anchor="middle" dominant-baseline="central" font-size="9" font-weight="bold" fill="#EF6C00">+</text>
  <path d="M 628,312 L 628,285 L 338,285 L 338,258 L 352,258" fill="none" stroke="#AAAAAA" stroke-width="2.5" stroke-linejoin="miter"/>
  <polygon points="344,254 352,258 344,262" fill="#AAAAAA"/>
  <polygon points="491,281 483,285 491,289" fill="#AAAAAA"/>
  <text class="lbl" x="350.5" y="246" dominant-baseline="text-before-edge">25</text>
  <use href="#blk-mla" transform="translate(352,238)"/>
  <use href="#ffn-moe" transform="translate(496,238)"/>
  <line x1="462" y1="258" x2="496" y2="258" stroke="#AAAAAA" stroke-width="2.5"/>
  <polygon points="488,254 496,258 488,262" fill="#AAAAAA"/>
  <path d="M 462,268 L 479,268 L 479,263" fill="none" stroke="#1976D2" stroke-width="1.0"/>
  <circle cx="479" cy="258" r="5" fill="#AAAAAA" stroke="none"/>
  <circle cx="479" cy="258" r="5" fill="none" stroke="#1976D2" stroke-width="1.2"/>
  <text x="479" y="258" text-anchor="middle" dominant-baseline="central" font-size="9" font-weight="bold" fill="#1976D2">+</text>
  <line x1="594" y1="258" x2="630" y2="258" stroke="#AAAAAA" stroke-width="2.5"/>
  <polygon points="622,254 630,258 622,262" fill="#AAAAAA"/>
  <path d="M 594,268 L 611,268 L 611,263" fill="none" stroke="#EF6C00" stroke-width="1.0"/>
  <circle cx="611" cy="258" r="5" fill="#AAAAAA" stroke="none"/>
  <circle cx="611" cy="258" r="5" fill="none" stroke="#EF6C00" stroke-width="1.2"/>
  <text x="611" y="258" text-anchor="middle" dominant-baseline="central" font-size="9" font-weight="bold" fill="#EF6C00">+</text>
  <path d="M 628,258 L 628,231 L 338,231 L 338,204 L 352,204" fill="none" stroke="#AAAAAA" stroke-width="2.5" stroke-linejoin="miter"/>
  <polygon points="344,200 352,204 344,208" fill="#AAAAAA"/>
  <polygon points="491,227 483,231 491,235" fill="#AAAAAA"/>
  <text class="lbl" x="350.5" y="192" dominant-baseline="text-before-edge">26</text>
  <use href="#blk-mla" transform="translate(352,184)"/>
  <use href="#ffn-moe" transform="translate(496,184)"/>
  <line x1="462" y1="204" x2="496" y2="204" stroke="#AAAAAA" stroke-width="2.5"/>
  <polygon points="488,200 496,204 488,208" fill="#AAAAAA"/>
  <path d="M 462,214 L 479,214 L 479,209" fill="none" stroke="#1976D2" stroke-width="1.0"/>
  <circle cx="479" cy="204" r="5" fill="#AAAAAA" stroke="none"/>
  <circle cx="479" cy="204" r="5" fill="none" stroke="#1976D2" stroke-width="1.2"/>
  <text x="479" y="204" text-anchor="middle" dominant-baseline="central" font-size="9" font-weight="bold" fill="#1976D2">+</text>
  <line x1="594" y1="204" x2="630" y2="204" stroke="#AAAAAA" stroke-width="2.5"/>
  <polygon points="622,200 630,204 622,208" fill="#AAAAAA"/>
  <path d="M 594,214 L 611,214 L 611,209" fill="none" stroke="#EF6C00" stroke-width="1.0"/>
  <circle cx="611" cy="204" r="5" fill="#AAAAAA" stroke="none"/>
  <circle cx="611" cy="204" r="5" fill="none" stroke="#EF6C00" stroke-width="1.2"/>
  <text x="611" y="204" text-anchor="middle" dominant-baseline="central" font-size="9" font-weight="bold" fill="#EF6C00">+</text>
  <path d="M 628,204 L 628,177 L 338,177 L 338,150 L 352,150" fill="none" stroke="#AAAAAA" stroke-width="2.5" stroke-linejoin="miter"/>
  <polygon points="344,146 352,150 344,154" fill="#AAAAAA"/>
  <polygon points="491,173 483,177 491,181" fill="#AAAAAA"/>
  <text class="lbl" x="350.5" y="138" dominant-baseline="text-before-edge">27</text>
  <use href="#blk-mla" transform="translate(352,130)"/>
  <use href="#ffn-moe" transform="translate(496,130)"/>
  <line x1="462" y1="150" x2="496" y2="150" stroke="#AAAAAA" stroke-width="2.5"/>
  <polygon points="488,146 496,150 488,154" fill="#AAAAAA"/>
  <path d="M 462,160 L 479,160 L 479,155" fill="none" stroke="#1976D2" stroke-width="1.0"/>
  <circle cx="479" cy="150" r="5" fill="#AAAAAA" stroke="none"/>
  <circle cx="479" cy="150" r="5" fill="none" stroke="#1976D2" stroke-width="1.2"/>
  <text x="479" y="150" text-anchor="middle" dominant-baseline="central" font-size="9" font-weight="bold" fill="#1976D2">+</text>
  <line x1="594" y1="150" x2="630" y2="150" stroke="#AAAAAA" stroke-width="2.5"/>
  <polygon points="622,146 630,150 622,154" fill="#AAAAAA"/>
  <path d="M 594,160 L 611,160 L 611,155" fill="none" stroke="#EF6C00" stroke-width="1.0"/>
  <circle cx="611" cy="150" r="5" fill="#AAAAAA" stroke="none"/>
  <circle cx="611" cy="150" r="5" fill="none" stroke="#EF6C00" stroke-width="1.2"/>
  <text x="611" y="150" text-anchor="middle" dominant-baseline="central" font-size="9" font-weight="bold" fill="#EF6C00">+</text>
  <path d="M 628,150 L 628,123 L 338,123 L 338,96 L 352,96" fill="none" stroke="#AAAAAA" stroke-width="2.5" stroke-linejoin="miter"/>
  <polygon points="344,92 352,96 344,100" fill="#AAAAAA"/>
  <polygon points="491,119 483,123 491,127" fill="#AAAAAA"/>
  <line x1="338" y1="96" x2="352" y2="96" stroke="#AAAAAA" stroke-width="2.5"/>
  <polygon points="344,92 352,96 344,100" fill="#AAAAAA"/>
  <rect x="352" y="76" width="242" height="40" fill="url(#zm_global)" stroke="#C62828" stroke-width="0.8" rx="2"/>
  <rect x="354" y="79" width="78" height="34" fill="#f8bbd0" stroke="#C62828" stroke-width="0.5" rx="1"/>
  <text class="tlbl" x="393" y="96">output norm</text>
  <rect x="433" y="79" width="78" height="34" fill="#f8bbd0" stroke="#C62828" stroke-width="0.5" rx="1"/>
  <text class="tlbl" x="472" y="96">lm_head</text>
  <text class="tlbl" x="551" y="96">[sample]</text>
  <path d="M 594,96 L 602,96 L 602,62 L 513,62" fill="none" stroke="#AAAAAA" stroke-width="2.5" stroke-linejoin="miter"/>
  <polygon points="521,58 513,62 521,66" fill="#AAAAAA"/>
  <text class="io" style="text-anchor:end" x="511" y="62">TOKEN OUT</text>
  <text style="font-size:9px;font-weight:bold;fill:#333333;font-family:'Courier New',monospace" x="656" y="73">Legend</text>
  <rect x="652" y="78" width="180" height="84" fill="#f5f5f5" stroke="#bdbdbd" stroke-width="0.8" rx="2"/>
  <rect x="656" y="88" width="10" height="10" fill="url(#zm_full_attention)" stroke="#1976D2" stroke-width="0.8" rx="1"/>
  <text class="ltxt" x="670" y="93">mla</text>
  <rect x="656" y="104" width="10" height="10" fill="url(#zm_ffn)" stroke="#EF6C00" stroke-width="0.8" rx="1"/>
  <text class="ltxt" x="670" y="109">FFN (MoE)</text>
  <rect x="656" y="120" width="10" height="10" fill="url(#zm_global)" stroke="#C62828" stroke-width="0.8" rx="1"/>
  <text class="ltxt" x="670" y="125">global</text>
  <rect x="656" y="136" width="10" height="10" fill="#e1bee7" stroke="#9C27B0" stroke-width="0.8" rx="1"/>
  <text class="ltxt" x="670" y="141">RMS norm</text>
  <text style="font-size:9px;font-weight:bold;fill:#333333;font-family:'Courier New',monospace" x="656" y="173">Summary</text>
  <rect x="652" y="178" width="180" height="60" fill="#f5f5f5" stroke="#bdbdbd" stroke-width="0.8" rx="2"/>
  <text class="shdr" x="656" y="189">57 modules</text>
  <text class="shdr" x="656" y="207">591 tensors</text>
  <text class="shdr" x="656" y="225">563 weights</text>
</svg>
