<svg viewBox="0 0 588 1214" xmlns="http://www.w3.org/2000/svg">
<style>
  text { font-family: 'Courier New', monospace; }
  .title { font-size: 20px; font-weight: bold; fill: #333333; font-family: system-ui, -apple-system, sans-serif; }
  .hdr   { font-size: 9px; font-weight: bold; fill: #333333; text-anchor: middle; dominant-baseline: middle; }
  .lbl   { font-size: 9px; fill: #888888; text-anchor: end; dominant-baseline: middle; }
  .tlbl  { font-size: 7px; fill: #000000; text-anchor: middle; dominant-baseline: middle; }
  .io    { font-size: 8px; font-weight: bold; fill: #888888; text-anchor: middle; dominant-baseline: middle; }
  .gtxt  { font-size: 9px; text-anchor: middle; dominant-baseline: middle; }
  .ltxt  { font-size: 8px; fill: #555555; dominant-baseline: middle; }
  .shdr  { font-size: 8px; font-weight: bold; fill: #333333; dominant-baseline: middle; }
  .etxt  { font-size: 6px; fill: #999999; text-anchor: middle; dominant-baseline: hanging; }
</style>
<defs>
  <linearGradient id="zm_full_attention" x1="0" y1="0" x2="0" y2="1">
    <stop offset="0%%" stop-color="#e3f2fd"/><stop offset="100%%" stop-color="#bbdefb"/>
  </linearGradient>
  <linearGradient id="zm_swa" x1="0" y1="0" x2="0" y2="1">
    <stop offset="0%%" stop-color="#e8f5e9"/><stop offset="100%%" stop-color="#c8e6c9"/>
  </linearGradient>
  <linearGradient id="zm_recurrent" x1="0" y1="0" x2="0" y2="1">
    <stop offset="0%%" stop-color="#e8f5e9"/><stop offset="100%%" stop-color="#c8e6c9"/>
  </linearGradient>
  <linearGradient id="zm_ffn" x1="0" y1="0" x2="0" y2="1">
    <stop offset="0%%" stop-color="#fff3e0"/><stop offset="100%%" stop-color="#ffe0b2"/>
  </linearGradient>
  <linearGradient id="zm_global" x1="0" y1="0" x2="0" y2="1">
    <stop offset="0%%" stop-color="#fce4ec"/><stop offset="100%%" stop-color="#f8bbd0"/>
  </linearGradient>
  <symbol id="blk-attention" overflow="visible">
  <rect x="0" y="0" width="110" height="40" fill="url(#zm_full_attention)" stroke="#1976D2" stroke-width="0.8" rx="2"/>
  <rect x="2" y="3" width="12" height="34" fill="#e1bee7" stroke="#9C27B0" stroke-width="0.5" rx="1"/>
  <text class="tlbl" x="8" y="20" transform="rotate(-90,8,20)">norm</text>
  <line x1="15" y1="0" x2="15" y2="40" stroke="#DDDDDD" stroke-width="0.7"/>
  <rect x="17" y="2" width="34" height="10" fill="#cce5f6" stroke="#1976D2" stroke-width="0.5" rx="1"/>
  <text class="tlbl" x="34" y="7">Q</text>
  <rect x="17" y="15" width="34" height="10" fill="#cce5f6" stroke="#1976D2" stroke-width="0.5" rx="1"/>
  <text class="tlbl" x="34" y="20">K</text>
  <rect x="17" y="28" width="34" height="10" fill="#cce5f6" stroke="#1976D2" stroke-width="0.5" rx="1"/>
  <text class="tlbl" x="34" y="33">V</text>
  <line x1="52" y1="0" x2="52" y2="40" stroke="#DDDDDD" stroke-width="0.7"/>
  <rect x="54" y="2" width="34" height="10" fill="#cce5f6" stroke="#1976D2" stroke-width="0.5" rx="1"/>
  <text class="tlbl" x="71" y="7">Kn</text>
  <rect x="54" y="15" width="34" height="10" fill="#cce5f6" stroke="#1976D2" stroke-width="0.5" rx="1"/>
  <text class="tlbl" x="71" y="20">Qn</text>
  <rect x="54" y="28" width="34" height="10" fill="#cce5f6" stroke="#1976D2" stroke-width="0.5" rx="1"/>
  <text class="tlbl" x="71" y="33">rope</text>
  <line x1="89" y1="0" x2="89" y2="40" stroke="#DDDDDD" stroke-width="0.7"/>
  <rect x="91" y="3" width="17" height="34" fill="#cce5f6" stroke="#1976D2" stroke-width="0.5" rx="1"/>
  <text class="tlbl" x="99" y="20">out</text>
  </symbol>
  <symbol id="blk-attention-desc" overflow="visible">
  <use href="#blk-attention"/>
  <line x1="117" y1="20" x2="117" y2="44" stroke="#1976D2" stroke-width="0.8"/>
  <path d="M 117,44 L -10,44" fill="none" stroke="#1976D2" stroke-width="1.0" stroke-dasharray="2,3"/>
  <circle cx="-10" cy="44" r="4" fill="#AAAAAA"/>
  <text x="-10" y="44" text-anchor="middle" dominant-baseline="central" font-size="8" font-weight="bold" fill="#1976D2">+</text>
  </symbol>
  <symbol id="blk-attention-asc" overflow="visible">
  <use href="#blk-attention"/>
  <line x1="117" y1="20" x2="117" y2="-4" stroke="#1976D2" stroke-width="0.8"/>
  <path d="M 117,-4 L -10,-4" fill="none" stroke="#1976D2" stroke-width="1.0" stroke-dasharray="2,3"/>
  <circle cx="-10" cy="-4" r="4" fill="#AAAAAA"/>
  <text x="-10" y="-4" text-anchor="middle" dominant-baseline="central" font-size="8" font-weight="bold" fill="#1976D2">+</text>
  </symbol>
  <symbol id="ffn-moe" overflow="visible">
  <rect x="0" y="0" width="98" height="40" fill="url(#zm_ffn)" stroke="#EF6C00" stroke-width="0.8" rx="2"/>
  <rect x="2" y="3" width="12" height="34" fill="#e1bee7" stroke="#9C27B0" stroke-width="0.5" rx="1"/>
  <text class="tlbl" x="8" y="20" transform="rotate(-90,8,20)">norm</text>
  <line x1="15" y1="0" x2="15" y2="40" stroke="#DDDDDD" stroke-width="0.7"/>
  <rect x="17" y="12" width="21" height="21" fill="#ffddb8" stroke="#EF6C00" stroke-width="0.5"/>
  <polygon points="17,12 22,7 43,7 38,12" fill="#ffe8cc" stroke="#EF6C00" stroke-width="0.5"/>
  <text class="tlbl" x="27" y="22">Dx</text>
  <rect x="43" y="12" width="21" height="21" fill="#ffddb8" stroke="#EF6C00" stroke-width="0.5"/>
  <polygon points="43,12 48,7 69,7 64,12" fill="#ffe8cc" stroke="#EF6C00" stroke-width="0.5"/>
  <text class="tlbl" x="53" y="22">Gx</text>
  <rect x="69" y="12" width="21" height="21" fill="#ffddb8" stroke="#EF6C00" stroke-width="0.5"/>
  <polygon points="69,12 74,7 95,7 90,12" fill="#ffe8cc" stroke="#EF6C00" stroke-width="0.5"/>
  <text class="tlbl" x="79" y="22">Ux</text>
  <line x1="98" y1="20" x2="108" y2="20" stroke="#AAAAAA" stroke-width="0.8"/>
  <polygon points="104,18 108,20 104,22" fill="#AAAAAA"/>
  </symbol>
  <symbol id="ffn-moe-desc" overflow="visible">
  <use href="#ffn-moe"/>
  <line x1="108" y1="20" x2="108" y2="52" stroke="#EF6C00" stroke-width="1.0"/>
  <path d="M 108,52 L -134,52" fill="none" stroke="#EF6C00" stroke-width="1.0" stroke-dasharray="2,3"/>
  <circle cx="-134" cy="52" r="4" fill="#AAAAAA"/>
  <text x="-134" y="52" text-anchor="middle" dominant-baseline="central" font-size="8" font-weight="bold" fill="#EF6C00">+</text>
  </symbol>
  <symbol id="ffn-moe-asc" overflow="visible">
  <use href="#ffn-moe"/>
  <line x1="108" y1="20" x2="108" y2="-12" stroke="#EF6C00" stroke-width="1.0"/>
  <path d="M 108,-12 L -134,-12" fill="none" stroke="#EF6C00" stroke-width="1.0" stroke-dasharray="2,3"/>
  <circle cx="-134" cy="-12" r="4" fill="#AAAAAA"/>
  <text x="-134" y="-12" text-anchor="middle" dominant-baseline="central" font-size="8" font-weight="bold" fill="#EF6C00">+</text>
  </symbol>
  <symbol id="row-chrome" overflow="visible">
  <circle cx="26" cy="0" r="2.5" fill="#888888"/>
  <line x1="26" y1="0" x2="36" y2="0" stroke="#AAAAAA" stroke-width="0.8"/>
  <polygon points="32,-2 36,0 32,2" fill="#AAAAAA"/>
  <line x1="146" y1="0" x2="160" y2="0" stroke="#AAAAAA" stroke-width="0.8"/>
  <polygon points="156,-2 160,0 156,2" fill="#AAAAAA"/>
  <polygon points="40,-2 36,0 40,2" fill="#AAAAAA"/>
  </symbol>
  <symbol id="global-row" overflow="visible">
  <line x1="26" y1="0" x2="36" y2="0" stroke="#AAAAAA" stroke-width="0.8"/>
  <polyline points="32,-2 36,0 32,2" fill="none" stroke="#AAAAAA" stroke-width="0.8"/>
  <rect x="36" y="-20" width="222" height="40" fill="url(#zm_global)" stroke="#C62828" stroke-width="0.8" rx="2"/>
  <rect x="38" y="-17" width="71" height="34" fill="#f8bbd0" stroke="#C62828" stroke-width="0.5" rx="1"/>
  <text class="tlbl" x="73" y="0">out</text>
  <rect x="110" y="-17" width="71" height="34" fill="#e1bee7" stroke="#9C27B0" stroke-width="0.5" rx="1"/>
  <text class="tlbl" x="145" y="0">norm</text>
  <rect x="182" y="-17" width="71" height="34" fill="#f8bbd0" stroke="#C62828" stroke-width="0.5" rx="1"/>
  <text class="tlbl" x="217" y="0">embd</text>
  <line x1="147" y1="-20" x2="147" y2="-36" stroke="#AAAAAA" stroke-width="0.8"/>
  <polyline points="144,-30 147,-36 150,-30" fill="none" stroke="#AAAAAA" stroke-width="1"/>
  <text class="io" x="147" y="-42">OUT</text>
  </symbol>
  <symbol id="legend" overflow="visible">
  <text style="font-size:9px;font-weight:bold;fill:#333333;font-family:'Courier New',monospace" x="4" y="-5">Legend</text>
  <rect width="170" height="84" fill="#f5f5f5" stroke="#bdbdbd" stroke-width="0.8" rx="2"/>
  <rect x="4" y="10" width="10" height="10" fill="url(#zm_full_attention)" stroke="#1976D2" stroke-width="0.8" rx="1"/>
  <text class="ltxt" x="18" y="15">attention</text>
  <rect x="4" y="26" width="10" height="10" fill="url(#zm_ffn)" stroke="#EF6C00" stroke-width="0.8" rx="1"/>
  <text class="ltxt" x="18" y="31">FFN (dense)</text>
  <rect x="4" y="42" width="10" height="10" fill="url(#zm_global)" stroke="#C62828" stroke-width="0.8" rx="1"/>
  <text class="ltxt" x="18" y="47">global</text>
  <rect x="4" y="58" width="10" height="10" fill="#e1bee7" stroke="#9C27B0" stroke-width="0.8" rx="1"/>
  <text class="ltxt" x="18" y="63">RMS norm</text>
  </symbol>
  <symbol id="summary" overflow="visible">
  <text style="font-size:9px;font-weight:bold;fill:#333333;font-family:'Courier New',monospace" x="4" y="-5">Summary</text>
  <rect width="170" height="60" fill="#f5f5f5" stroke="#bdbdbd" stroke-width="0.8" rx="2"/>
  <text class="shdr" x="4" y="11">65 modules</text>
  <text class="shdr" x="4" y="29">387 tensors</text>
  <text class="shdr" x="4" y="47">387 weights</text>
  </symbol>
</defs>
  <rect width="588" height="1214" fill="#fafafa" rx="8"/>

  <text class="title" x="279" y="32" text-anchor="middle">Llada-moe Layers</text>
  <text x="279" y="46" text-anchor="middle" font-size="11" font-weight="600" fill="#999999">(diffusion — iterative denoising, bidirectional)</text>
  <line x1="26" y1="90" x2="26" y2="1076" stroke="#AAAAAA" stroke-width="1.5"/>
  <text class="io" x="26" y="86">IN</text>
  <path d="M 26,1076 L 26,1088 L 316,1088" fill="none" stroke="#AAAAAA" stroke-width="1.5"/>
  <polygon points="119,1085 125,1088 119,1091" fill="#AAAAAA"/>
  <polygon points="222,1085 216,1088 222,1091" fill="#AAAAAA"/>
  <line x1="316" y1="1088" x2="316" y2="1076" stroke="#AAAAAA" stroke-width="1.5"/>
  <line x1="316" y1="1076" x2="316" y2="158" stroke="#AAAAAA" stroke-width="1.5"/>
  <polygon points="313,164 316,170 319,164" fill="#AAAAAA"/>
  <use href="#row-chrome" transform="translate(0,100)"/>
  <text class="lbl" x="21" y="100">0</text>
  <use href="#blk-attention-desc" transform="translate(36,80)"/>
  <use href="#ffn-moe-desc" transform="translate(160,80)"/>
  <polygon points="23,118 26,112 29,118" fill="#AAAAAA"/>
  <polygon points="23,138 26,144 29,138" fill="#AAAAAA"/>
  <use href="#row-chrome" transform="translate(0,158)"/>
  <text class="lbl" x="21" y="158">1</text>
  <use href="#blk-attention-desc" transform="translate(36,138)"/>
  <use href="#ffn-moe-desc" transform="translate(160,138)"/>
  <polygon points="23,176 26,170 29,176" fill="#AAAAAA"/>
  <polygon points="23,196 26,202 29,196" fill="#AAAAAA"/>
  <use href="#row-chrome" transform="translate(0,216)"/>
  <text class="lbl" x="21" y="216">2</text>
  <use href="#blk-attention-desc" transform="translate(36,196)"/>
  <use href="#ffn-moe-desc" transform="translate(160,196)"/>
  <polygon points="23,234 26,228 29,234" fill="#AAAAAA"/>
  <polygon points="23,254 26,260 29,254" fill="#AAAAAA"/>
  <use href="#row-chrome" transform="translate(0,274)"/>
  <text class="lbl" x="21" y="274">3</text>
  <use href="#blk-attention-desc" transform="translate(36,254)"/>
  <use href="#ffn-moe-desc" transform="translate(160,254)"/>
  <polygon points="23,292 26,286 29,292" fill="#AAAAAA"/>
  <polygon points="23,312 26,318 29,312" fill="#AAAAAA"/>
  <use href="#row-chrome" transform="translate(0,332)"/>
  <text class="lbl" x="21" y="332">4</text>
  <use href="#blk-attention-desc" transform="translate(36,312)"/>
  <use href="#ffn-moe-desc" transform="translate(160,312)"/>
  <polygon points="23,350 26,344 29,350" fill="#AAAAAA"/>
  <polygon points="23,370 26,376 29,370" fill="#AAAAAA"/>
  <use href="#row-chrome" transform="translate(0,390)"/>
  <text class="lbl" x="21" y="390">5</text>
  <use href="#blk-attention-desc" transform="translate(36,370)"/>
  <use href="#ffn-moe-desc" transform="translate(160,370)"/>
  <polygon points="23,408 26,402 29,408" fill="#AAAAAA"/>
  <polygon points="23,428 26,434 29,428" fill="#AAAAAA"/>
  <use href="#row-chrome" transform="translate(0,448)"/>
  <text class="lbl" x="21" y="448">6</text>
  <use href="#blk-attention-desc" transform="translate(36,428)"/>
  <use href="#ffn-moe-desc" transform="translate(160,428)"/>
  <polygon points="23,466 26,460 29,466" fill="#AAAAAA"/>
  <polygon points="23,486 26,492 29,486" fill="#AAAAAA"/>
  <use href="#row-chrome" transform="translate(0,506)"/>
  <text class="lbl" x="21" y="506">7</text>
  <use href="#blk-attention-desc" transform="translate(36,486)"/>
  <use href="#ffn-moe-desc" transform="translate(160,486)"/>
  <polygon points="23,524 26,518 29,524" fill="#AAAAAA"/>
  <polygon points="23,544 26,550 29,544" fill="#AAAAAA"/>
  <use href="#row-chrome" transform="translate(0,564)"/>
  <text class="lbl" x="21" y="564">8</text>
  <use href="#blk-attention-desc" transform="translate(36,544)"/>
  <use href="#ffn-moe-desc" transform="translate(160,544)"/>
  <polygon points="23,582 26,576 29,582" fill="#AAAAAA"/>
  <polygon points="23,602 26,608 29,602" fill="#AAAAAA"/>
  <use href="#row-chrome" transform="translate(0,622)"/>
  <text class="lbl" x="21" y="622">9</text>
  <use href="#blk-attention-desc" transform="translate(36,602)"/>
  <use href="#ffn-moe-desc" transform="translate(160,602)"/>
  <polygon points="23,640 26,634 29,640" fill="#AAAAAA"/>
  <polygon points="23,660 26,666 29,660" fill="#AAAAAA"/>
  <use href="#row-chrome" transform="translate(0,680)"/>
  <text class="lbl" x="21" y="680">10</text>
  <use href="#blk-attention-desc" transform="translate(36,660)"/>
  <use href="#ffn-moe-desc" transform="translate(160,660)"/>
  <polygon points="23,698 26,692 29,698" fill="#AAAAAA"/>
  <polygon points="23,718 26,724 29,718" fill="#AAAAAA"/>
  <use href="#row-chrome" transform="translate(0,738)"/>
  <text class="lbl" x="21" y="738">11</text>
  <use href="#blk-attention-desc" transform="translate(36,718)"/>
  <use href="#ffn-moe-desc" transform="translate(160,718)"/>
  <polygon points="23,756 26,750 29,756" fill="#AAAAAA"/>
  <polygon points="23,776 26,782 29,776" fill="#AAAAAA"/>
  <use href="#row-chrome" transform="translate(0,796)"/>
  <text class="lbl" x="21" y="796">12</text>
  <use href="#blk-attention-desc" transform="translate(36,776)"/>
  <use href="#ffn-moe-desc" transform="translate(160,776)"/>
  <polygon points="23,814 26,808 29,814" fill="#AAAAAA"/>
  <polygon points="23,834 26,840 29,834" fill="#AAAAAA"/>
  <use href="#row-chrome" transform="translate(0,854)"/>
  <text class="lbl" x="21" y="854">13</text>
  <use href="#blk-attention-desc" transform="translate(36,834)"/>
  <use href="#ffn-moe-desc" transform="translate(160,834)"/>
  <polygon points="23,872 26,866 29,872" fill="#AAAAAA"/>
  <polygon points="23,892 26,898 29,892" fill="#AAAAAA"/>
  <use href="#row-chrome" transform="translate(0,912)"/>
  <text class="lbl" x="21" y="912">14</text>
  <use href="#blk-attention-desc" transform="translate(36,892)"/>
  <use href="#ffn-moe-desc" transform="translate(160,892)"/>
  <polygon points="23,930 26,924 29,930" fill="#AAAAAA"/>
  <polygon points="23,950 26,956 29,950" fill="#AAAAAA"/>
  <use href="#row-chrome" transform="translate(0,970)"/>
  <text class="lbl" x="21" y="970">15</text>
  <use href="#blk-attention-desc" transform="translate(36,950)"/>
  <use href="#ffn-moe-desc" transform="translate(160,950)"/>
  <polygon points="23,988 26,982 29,988" fill="#AAAAAA"/>
  <polygon points="23,1008 26,1014 29,1008" fill="#AAAAAA"/>
  <use href="#row-chrome" transform="translate(0,1028)"/>
  <text class="lbl" x="21" y="1028">16</text>
  <use href="#blk-attention-desc" transform="translate(36,1008)"/>
  <use href="#ffn-moe-desc" transform="translate(160,1008)"/>
  <polygon points="23,1046 26,1040 29,1046" fill="#AAAAAA"/>
  <polygon points="23,1066 26,1072 29,1066" fill="#AAAAAA"/>
  <use href="#row-chrome" transform="translate(290,1028)"/>
  <text class="lbl" x="311" y="1028">17</text>
  <use href="#blk-attention-asc" transform="translate(326,1008)"/>
  <use href="#ffn-moe-asc" transform="translate(450,1008)"/>
  <polygon points="313,990 316,984 319,990" fill="#AAAAAA"/>
  <polygon points="313,1010 316,1016 319,1010" fill="#AAAAAA"/>
  <use href="#row-chrome" transform="translate(290,970)"/>
  <text class="lbl" x="311" y="970">18</text>
  <use href="#blk-attention-asc" transform="translate(326,950)"/>
  <use href="#ffn-moe-asc" transform="translate(450,950)"/>
  <polygon points="313,932 316,926 319,932" fill="#AAAAAA"/>
  <polygon points="313,952 316,958 319,952" fill="#AAAAAA"/>
  <use href="#row-chrome" transform="translate(290,912)"/>
  <text class="lbl" x="311" y="912">19</text>
  <use href="#blk-attention-asc" transform="translate(326,892)"/>
  <use href="#ffn-moe-asc" transform="translate(450,892)"/>
  <polygon points="313,874 316,868 319,874" fill="#AAAAAA"/>
  <polygon points="313,894 316,900 319,894" fill="#AAAAAA"/>
  <use href="#row-chrome" transform="translate(290,854)"/>
  <text class="lbl" x="311" y="854">20</text>
  <use href="#blk-attention-asc" transform="translate(326,834)"/>
  <use href="#ffn-moe-asc" transform="translate(450,834)"/>
  <polygon points="313,816 316,810 319,816" fill="#AAAAAA"/>
  <polygon points="313,836 316,842 319,836" fill="#AAAAAA"/>
  <use href="#row-chrome" transform="translate(290,796)"/>
  <text class="lbl" x="311" y="796">21</text>
  <use href="#blk-attention-asc" transform="translate(326,776)"/>
  <use href="#ffn-moe-asc" transform="translate(450,776)"/>
  <polygon points="313,758 316,752 319,758" fill="#AAAAAA"/>
  <polygon points="313,778 316,784 319,778" fill="#AAAAAA"/>
  <use href="#row-chrome" transform="translate(290,738)"/>
  <text class="lbl" x="311" y="738">22</text>
  <use href="#blk-attention-asc" transform="translate(326,718)"/>
  <use href="#ffn-moe-asc" transform="translate(450,718)"/>
  <polygon points="313,700 316,694 319,700" fill="#AAAAAA"/>
  <polygon points="313,720 316,726 319,720" fill="#AAAAAA"/>
  <use href="#row-chrome" transform="translate(290,680)"/>
  <text class="lbl" x="311" y="680">23</text>
  <use href="#blk-attention-asc" transform="translate(326,660)"/>
  <use href="#ffn-moe-asc" transform="translate(450,660)"/>
  <polygon points="313,642 316,636 319,642" fill="#AAAAAA"/>
  <polygon points="313,662 316,668 319,662" fill="#AAAAAA"/>
  <use href="#row-chrome" transform="translate(290,622)"/>
  <text class="lbl" x="311" y="622">24</text>
  <use href="#blk-attention-asc" transform="translate(326,602)"/>
  <use href="#ffn-moe-asc" transform="translate(450,602)"/>
  <polygon points="313,584 316,578 319,584" fill="#AAAAAA"/>
  <polygon points="313,604 316,610 319,604" fill="#AAAAAA"/>
  <use href="#row-chrome" transform="translate(290,564)"/>
  <text class="lbl" x="311" y="564">25</text>
  <use href="#blk-attention-asc" transform="translate(326,544)"/>
  <use href="#ffn-moe-asc" transform="translate(450,544)"/>
  <polygon points="313,526 316,520 319,526" fill="#AAAAAA"/>
  <polygon points="313,546 316,552 319,546" fill="#AAAAAA"/>
  <use href="#row-chrome" transform="translate(290,506)"/>
  <text class="lbl" x="311" y="506">26</text>
  <use href="#blk-attention-asc" transform="translate(326,486)"/>
  <use href="#ffn-moe-asc" transform="translate(450,486)"/>
  <polygon points="313,468 316,462 319,468" fill="#AAAAAA"/>
  <polygon points="313,488 316,494 319,488" fill="#AAAAAA"/>
  <use href="#row-chrome" transform="translate(290,448)"/>
  <text class="lbl" x="311" y="448">27</text>
  <use href="#blk-attention-asc" transform="translate(326,428)"/>
  <use href="#ffn-moe-asc" transform="translate(450,428)"/>
  <polygon points="313,410 316,404 319,410" fill="#AAAAAA"/>
  <polygon points="313,430 316,436 319,430" fill="#AAAAAA"/>
  <use href="#row-chrome" transform="translate(290,390)"/>
  <text class="lbl" x="311" y="390">28</text>
  <use href="#blk-attention-asc" transform="translate(326,370)"/>
  <use href="#ffn-moe-asc" transform="translate(450,370)"/>
  <polygon points="313,352 316,346 319,352" fill="#AAAAAA"/>
  <polygon points="313,372 316,378 319,372" fill="#AAAAAA"/>
  <use href="#row-chrome" transform="translate(290,332)"/>
  <text class="lbl" x="311" y="332">29</text>
  <use href="#blk-attention-asc" transform="translate(326,312)"/>
  <use href="#ffn-moe-asc" transform="translate(450,312)"/>
  <polygon points="313,294 316,288 319,294" fill="#AAAAAA"/>
  <polygon points="313,314 316,320 319,314" fill="#AAAAAA"/>
  <use href="#row-chrome" transform="translate(290,274)"/>
  <text class="lbl" x="311" y="274">30</text>
  <use href="#blk-attention-asc" transform="translate(326,254)"/>
  <use href="#ffn-moe-asc" transform="translate(450,254)"/>
  <polygon points="313,236 316,230 319,236" fill="#AAAAAA"/>
  <polygon points="313,256 316,262 319,256" fill="#AAAAAA"/>
  <use href="#row-chrome" transform="translate(290,216)"/>
  <text class="lbl" x="311" y="216">31</text>
  <use href="#blk-attention-asc" transform="translate(326,196)"/>
  <use href="#ffn-moe-asc" transform="translate(450,196)"/>
  <polygon points="313,178 316,172 319,178" fill="#AAAAAA"/>
  <polygon points="313,198 316,204 319,198" fill="#AAAAAA"/>
  <use href="#global-row" transform="translate(290,158)"/>
  <path d="M 437,110 L 437,54 L 26,54 L 26,78" fill="none" stroke="#AAAAAA" stroke-width="1.2" stroke-dasharray="4,3"/>
  <polygon points="23,72 26,78 29,72" fill="#AAAAAA"/>
  <text x="433" y="64" text-anchor="end" font-size="8" font-style="italic" fill="#999999">unmask &amp; re-run (T steps)</text>
  <use href="#legend" transform="translate(22,1118)"/>
  <use href="#summary" transform="translate(312,1118)"/>
</svg>
