<svg xmlns="http://www.w3.org/2000/svg" viewBox="0 0 960 1748" font-family="system-ui, -apple-system, sans-serif" font-size="13">
  <defs>
    <marker id="arrow" markerWidth="8" markerHeight="6" refX="8" refY="3" orient="auto">
      <path d="M0,0 L8,3 L0,6" fill="#555555"/>
    </marker>
    <linearGradient id="ssmGrad" x1="0" y1="0" x2="0" y2="1">
      <stop offset="0%" stop-color="#e8f5e9"/><stop offset="100%" stop-color="#c8e6c9"/>
    </linearGradient>
    <linearGradient id="attnGrad" x1="0" y1="0" x2="0" y2="1">
      <stop offset="0%" stop-color="#e3f2fd"/><stop offset="100%" stop-color="#bbdefb"/>
    </linearGradient>
    <linearGradient id="ffnGrad" x1="0" y1="0" x2="0" y2="1">
      <stop offset="0%" stop-color="#fff3e0"/><stop offset="100%" stop-color="#ffe0b2"/>
    </linearGradient>
    <linearGradient id="normGrad" x1="0" y1="0" x2="0" y2="1">
      <stop offset="0%" stop-color="#f3e5f5"/><stop offset="100%" stop-color="#e1bee7"/>
    </linearGradient>
    <linearGradient id="globalGrad" x1="0" y1="0" x2="0" y2="1">
      <stop offset="0%" stop-color="#fce4ec"/><stop offset="100%" stop-color="#f8bbd0"/>
    </linearGradient>
    <filter id="shadow" x="-2%" y="-2%" width="104%" height="104%">
      <feDropShadow dx="1" dy="1" stdDeviation="2" flood-opacity="0.12"/>
    </filter>
  <!-- Block definitions -->
  <g id="block_full_attention_gated">
<g>
  <rect width="660" height="250" rx="6" fill="url(#attnGrad)" stroke="#1565c0" stroke-width="1.2" filter="url(#shadow)"/>
  <text x="330" y="20" text-anchor="middle" font-weight="700" font-size="13" fill="#0d47a1">Full Attention (Gated)</text>
  <g transform="translate(15, 35)">
    <rect width="190" height="56" rx="4" fill="#fff" stroke="#64b5f6" stroke-width="0.8" opacity="0.9"/>
    <text x="95" y="17" text-anchor="middle" font-size="11" font-weight="600" fill="#1565c0">Q + Gate Projection</text>
    <text x="95" y="31" text-anchor="middle" font-size="9" fill="#777">attn_q.weight -> split Q, gate</text>
    <text x="95" y="43" text-anchor="middle" font-size="9" fill="#777">RMS norm Q (attn_q_norm)</text>
  </g>
  <g transform="translate(225, 35)">
    <rect width="190" height="56" rx="4" fill="#fff" stroke="#64b5f6" stroke-width="0.8" opacity="0.9"/>
    <text x="95" y="17" text-anchor="middle" font-size="11" font-weight="600" fill="#1565c0">K / V Projections</text>
    <text x="95" y="31" text-anchor="middle" font-size="9" fill="#777">attn_k.weight / attn_v.weight</text>
    <text x="95" y="43" text-anchor="middle" font-size="9" fill="#777">RMS norm K (attn_k_norm)</text>
  </g>
  <g transform="translate(435, 35)">
    <rect width="210" height="56" rx="4" fill="#fff" stroke="#64b5f6" stroke-width="0.8" opacity="0.9"/>
    <text x="105" y="17" text-anchor="middle" font-size="11" font-weight="600" fill="#1565c0">MRoPE</text>
    <text x="105" y="31" text-anchor="middle" font-size="9" fill="#777">sections=[11,11,10,0]</text>
    <text x="105" y="43" text-anchor="middle" font-size="9" fill="#777">mode=neox / freq_base=10M</text>
  </g>
  <g transform="translate(15, 105)">
    <rect width="300" height="44" rx="4" fill="#fff" stroke="#64b5f6" stroke-width="0.8" opacity="0.9"/>
    <text x="150" y="17" text-anchor="middle" font-size="11" font-weight="600" fill="#1565c0">Scaled Dot-Product Attention</text>
    <text x="150" y="31" text-anchor="middle" font-size="9" fill="#777">GQA: 16 Q-heads / 4 KV-heads / head_dim=256</text>
  </g>
  <g transform="translate(335, 105)">
    <rect width="160" height="44" rx="4" fill="#fff" stroke="#64b5f6" stroke-width="0.8" opacity="0.9"/>
    <text x="80" y="17" text-anchor="middle" font-size="11" font-weight="600" fill="#1565c0">Sigmoid Gate</text>
    <text x="80" y="31" text-anchor="middle" font-size="9" fill="#777">sig(gate) * attn_out</text>
  </g>
  <g transform="translate(15, 163)">
    <rect width="260" height="36" rx="4" fill="#fff" stroke="#64b5f6" stroke-width="0.8" opacity="0.9"/>
    <text x="130" y="15" text-anchor="middle" font-size="11" font-weight="600" fill="#1565c0">Output Projection</text>
    <text x="130" y="28" text-anchor="middle" font-size="9" fill="#777">attn_output.weight</text>
  </g>
  <g transform="translate(520, 105)">
    <rect width="125" height="44" rx="4" fill="#e3f2fd" stroke="#90caf9" stroke-width="0.8" stroke-dasharray="3,2"/>
    <text x="62" y="17" text-anchor="middle" font-size="10" font-weight="600" fill="#1976d2">KV Cache</text>
    <text x="62" y="31" text-anchor="middle" font-size="9" fill="#666">k / v [f32]</text>
  </g>
</g>
  </g>
  <g id="block_gated_delta_net">
<g>
  <rect width="580" height="200" rx="6" fill="url(#ssmGrad)" stroke="#2e7d32" stroke-width="1.2" filter="url(#shadow)"/>
  <text x="290" y="20" text-anchor="middle" font-weight="700" font-size="13" fill="#1b5e20">Gated Delta-Net</text>
  <g transform="translate(15, 35)">
    <rect width="160" height="56" rx="4" fill="#fff" stroke="#66bb6a" stroke-width="0.8" opacity="0.9"/>
    <text x="80" y="18" text-anchor="middle" font-size="11" font-weight="600" fill="#2e7d32">QKV Projection</text>
    <text x="80" y="32" text-anchor="middle" font-size="9" fill="#777">attn_qkv.weight</text>
    <text x="80" y="44" text-anchor="middle" font-size="9" fill="#777">+ attn_gate.weight (Z)</text>
  </g>
  <g transform="translate(195, 35)">
    <rect width="120" height="56" rx="4" fill="#fff" stroke="#66bb6a" stroke-width="0.8" opacity="0.9"/>
    <text x="60" y="18" text-anchor="middle" font-size="11" font-weight="600" fill="#2e7d32">Conv1D</text>
    <text x="60" y="32" text-anchor="middle" font-size="9" fill="#777">ssm_conv1d.weight</text>
    <text x="60" y="44" text-anchor="middle" font-size="9" fill="#777">silu activation</text>
  </g>
  <g transform="translate(335, 35)">
    <rect width="120" height="56" rx="4" fill="#fff" stroke="#66bb6a" stroke-width="0.8" opacity="0.9"/>
    <text x="60" y="18" text-anchor="middle" font-size="11" font-weight="600" fill="#2e7d32">L2 Norm Q/K</text>
    <text x="60" y="32" text-anchor="middle" font-size="9" fill="#777">eps=rms_eps</text>
    <text x="60" y="44" text-anchor="middle" font-size="9" fill="#777">normalize per head</text>
  </g>
  <g transform="translate(15, 105)">
    <rect width="220" height="44" rx="4" fill="#fff" stroke="#66bb6a" stroke-width="0.8" opacity="0.9"/>
    <text x="110" y="17" text-anchor="middle" font-size="11" font-weight="600" fill="#2e7d32">Fused Gated Delta-Net</text>
    <text x="110" y="31" text-anchor="middle" font-size="9" fill="#777">ssm_a / ssm_alpha / ssm_beta / ssm_dt.bias</text>
  </g>
  <g transform="translate(250, 105)">
    <rect width="130" height="44" rx="4" fill="url(#normGrad)" stroke="#7b1fa2" stroke-width="0.8" opacity="0.9"/>
    <text x="65" y="17" text-anchor="middle" font-size="11" font-weight="600" fill="#6a1b9a">RMSNorm</text>
    <text x="65" y="31" text-anchor="middle" font-size="9" fill="#777">ssm_norm.weight</text>
  </g>
  <g transform="translate(395, 105)">
    <rect width="170" height="44" rx="4" fill="#fff" stroke="#66bb6a" stroke-width="0.8" opacity="0.9"/>
    <text x="85" y="17" text-anchor="middle" font-size="11" font-weight="600" fill="#2e7d32">Gated Output</text>
    <text x="85" y="31" text-anchor="middle" font-size="9" fill="#777">norm(x) * silu(z) -> ssm_out</text>
  </g>
  <g transform="translate(475, 35)">
    <rect width="90" height="56" rx="4" fill="#e8f5e9" stroke="#a5d6a7" stroke-width="0.8" stroke-dasharray="3,2"/>
    <text x="45" y="18" text-anchor="middle" font-size="10" font-weight="600" fill="#388e3c">Cache</text>
    <text x="45" y="32" text-anchor="middle" font-size="9" fill="#666">conv_state</text>
    <text x="45" y="44" text-anchor="middle" font-size="9" fill="#666">ssm_state</text>
  </g>
</g>
  </g>
  <g id="block_moe_with_shared">
<g>
  <rect width="660" height="200" rx="6" fill="url(#ffnGrad)" stroke="#e65100" stroke-width="1.2" filter="url(#shadow)"/>
  <text x="330" y="20" text-anchor="middle" font-weight="700" font-size="13" fill="#bf360c">MoE FFN + Shared Expert</text>
  <g transform="translate(15, 35)">
    <rect width="120" height="56" rx="4" fill="#fff" stroke="#ff9800" stroke-width="0.8" opacity="0.9"/>
    <text x="60" y="17" text-anchor="middle" font-size="11" font-weight="600" fill="#e65100">Router</text>
    <text x="60" y="31" text-anchor="middle" font-size="9" fill="#777">gate_inp.weight</text>
    <text x="60" y="43" text-anchor="middle" font-size="9" fill="#777">softmax -> top-k</text>
  </g>
  <g transform="translate(150, 35)">
    <rect width="200" height="56" rx="4" fill="#fff" stroke="#ff9800" stroke-width="0.8" opacity="0.9"/>
    <text x="100" y="17" text-anchor="middle" font-size="11" font-weight="600" fill="#e65100">Expert SwiGLU</text>
    <text x="100" y="31" text-anchor="middle" font-size="9" fill="#777">gate_exps / up_exps / down_exps</text>
    <text x="100" y="43" text-anchor="middle" font-size="9" fill="#777">mul_mat_id (indexed dispatch)</text>
  </g>
  <g transform="translate(365, 35)">
    <rect width="140" height="56" rx="4" fill="#fff" stroke="#ff9800" stroke-width="0.8" opacity="0.9"/>
    <text x="70" y="17" text-anchor="middle" font-size="11" font-weight="600" fill="#e65100">Aggregate</text>
    <text x="70" y="31" text-anchor="middle" font-size="9" fill="#777">weight * expert_out</text>
    <text x="70" y="43" text-anchor="middle" font-size="9" fill="#777">sum across experts</text>
  </g>
  <g transform="translate(15, 110)">
    <rect width="380" height="44" rx="4" fill="#fff" stroke="#ff9800" stroke-width="0.8" opacity="0.9"/>
    <text x="190" y="17" text-anchor="middle" font-size="11" font-weight="600" fill="#e65100">Shared Expert (SwiGLU)</text>
    <text x="190" y="31" text-anchor="middle" font-size="9" fill="#777">gate_shexp / up_shexp / down_shexp</text>
  </g>
  <g transform="translate(410, 110)">
    <rect width="120" height="44" rx="4" fill="#fff" stroke="#ff9800" stroke-width="0.8" opacity="0.9"/>
    <text x="60" y="17" text-anchor="middle" font-size="11" font-weight="600" fill="#e65100">Sigmoid Gate</text>
    <text x="60" y="31" text-anchor="middle" font-size="9" fill="#777">gate_inp_shexp</text>
  </g>
  <g transform="translate(545, 35)">
    <rect width="100" height="119" rx="4" fill="#fff3e0" stroke="#ffcc80" stroke-width="0.8" stroke-dasharray="3,2"/>
    <text x="50" y="50" text-anchor="middle" font-size="10" font-weight="600" fill="#e65100">Combine</text>
    <text x="50" y="66" text-anchor="middle" font-size="9" fill="#777">moe_out +</text>
    <text x="50" y="78" text-anchor="middle" font-size="9" fill="#777">shared_out</text>
  </g>
</g>
  </g>
  </defs>

  <rect width="960" height="1748" fill="#fafafa" rx="8"/>

  <text x="480" y="32" text-anchor="middle" font-size="20" font-weight="bold" fill="#333333">Qwen35moe Architecture</text>
  <rect x="150" y="44" width="661" height="44" rx="5" fill="#f5f5f5" stroke="#bdbdbd" stroke-width="0.8"/>
  <g transform="translate(160, 52)">
    <rect x="0" width="18" height="14" rx="3" fill="url(#globalGrad)" stroke="#C62828" stroke-width="0.8"/>
    <text x="24" y="12" font-size="11" fill="#555555">Global</text>
    <rect x="82" width="18" height="14" rx="3" fill="url(#normGrad)" stroke="#9C27B0" stroke-width="0.8"/>
    <text x="106" y="12" font-size="11" fill="#555555">RMSNorm</text>
    <rect x="171" width="18" height="14" rx="3" fill="url(#attnGrad)" stroke="#1976D2" stroke-width="0.8"/>
    <text x="195" y="12" font-size="11" fill="#555555">full attention gated</text>
    <rect x="351" width="18" height="14" rx="3" fill="url(#ssmGrad)" stroke="#66BB6A" stroke-width="0.8"/>
    <text x="375" y="12" font-size="11" fill="#555555">gated delta net</text>
    <rect x="496" width="18" height="14" rx="3" fill="url(#ffnGrad)" stroke="#EF6C00" stroke-width="0.8"/>
    <text x="520" y="12" font-size="11" fill="#555555">moe with shared</text>
  </g>
  <text x="480" y="78" text-anchor="middle" font-size="9" fill="#999999" font-family="monospace">@{name} = engine builtin, ${name} = GGUF-resolved param</text>
  <g transform="translate(330, 110)">
    <rect width="300" height="40" rx="6" fill="url(#globalGrad)" stroke="#C62828" stroke-width="1.2" filter="url(#shadow)"/>
    <text x="150" y="17" text-anchor="middle" font-weight="600" fill="#b71c1c">Token Embedding</text>
    <text x="150" y="32" text-anchor="middle" font-size="10" fill="#777777">token_embd.weight (tied to output)</text>
  </g>
  <line x1="480" y1="150" x2="480" y2="170" stroke="#555555" stroke-width="1.5" marker-end="url(#arrow)"/>
  <rect x="30" y="170" width="900" height="591" rx="8" fill="none" stroke="#66BB6A" stroke-width="1.5" stroke-dasharray="6,3" opacity="0.6"/>
  <text x="42" y="190" font-size="11" font-weight="600" fill="#66BB6A">recurrent ssm — when: (@{layer_idx} + 1) % ${full_attn_interval} != 0</text>
  <g transform="translate(330, 213)">
    <rect width="300" height="34" rx="5" fill="url(#normGrad)" stroke="#9C27B0" stroke-width="1" filter="url(#shadow)"/>
    <text x="150" y="14" text-anchor="middle" font-weight="600" fill="#6a1b9a">RMSNorm</text>
    <text x="150" y="27" text-anchor="middle" font-size="10" fill="#777777">attn_norm.weight</text>
  </g>
  <line x1="480" y1="247" x2="480" y2="267" stroke="#555555" stroke-width="1.5" marker-end="url(#arrow)"/>
  <use href="#block_gated_delta_net" transform="translate(190, 267)"/>
  <text x="782" y="367" font-size="11" fill="#555555" font-weight="600">+ residual</text>
  <g transform="translate(330, 482)">
    <rect width="300" height="34" rx="5" fill="url(#normGrad)" stroke="#9C27B0" stroke-width="1" filter="url(#shadow)"/>
    <text x="150" y="14" text-anchor="middle" font-weight="600" fill="#6a1b9a">RMSNorm</text>
    <text x="150" y="27" text-anchor="middle" font-size="10" fill="#777777">post_attention_norm.weight</text>
  </g>
  <line x1="480" y1="516" x2="480" y2="536" stroke="#555555" stroke-width="1.5" marker-end="url(#arrow)"/>
  <use href="#block_moe_with_shared" transform="translate(150, 536)"/>
  <text x="822" y="640" font-size="11" fill="#555555" font-weight="600">+ residual</text>
  <rect x="30" y="771" width="900" height="641" rx="8" fill="none" stroke="#1976D2" stroke-width="1.5" stroke-dasharray="6,3" opacity="0.6"/>
  <text x="42" y="791" font-size="11" font-weight="600" fill="#1976D2">full attention — when: NOT ((@{layer_idx} + 1) % ${full_attn_interval} != 0)</text>
  <g transform="translate(330, 814)">
    <rect width="300" height="34" rx="5" fill="url(#normGrad)" stroke="#9C27B0" stroke-width="1" filter="url(#shadow)"/>
    <text x="150" y="14" text-anchor="middle" font-weight="600" fill="#6a1b9a">RMSNorm</text>
    <text x="150" y="27" text-anchor="middle" font-size="10" fill="#777777">attn_norm.weight</text>
  </g>
  <line x1="480" y1="848" x2="480" y2="868" stroke="#555555" stroke-width="1.5" marker-end="url(#arrow)"/>
  <use href="#block_full_attention_gated" transform="translate(150, 868)"/>
  <text x="822" y="993" font-size="11" fill="#555555" font-weight="600">+ residual</text>
  <g transform="translate(330, 1133)">
    <rect width="300" height="34" rx="5" fill="url(#normGrad)" stroke="#9C27B0" stroke-width="1" filter="url(#shadow)"/>
    <text x="150" y="14" text-anchor="middle" font-weight="600" fill="#6a1b9a">RMSNorm</text>
    <text x="150" y="27" text-anchor="middle" font-size="10" fill="#777777">post_attention_norm.weight</text>
  </g>
  <line x1="480" y1="1167" x2="480" y2="1187" stroke="#555555" stroke-width="1.5" marker-end="url(#arrow)"/>
  <use href="#block_moe_with_shared" transform="translate(150, 1187)"/>
  <text x="822" y="1291" font-size="11" fill="#555555" font-weight="600">+ residual</text>
  <line x1="480" y1="1412" x2="480" y2="1432" stroke="#555555" stroke-width="1.5" marker-end="url(#arrow)"/>
  <text x="488" y="1428" font-size="10" fill="#999999">x repeats</text>
  <g transform="translate(30, 1432)">
    <rect width="900" height="50" rx="6" fill="#f5f5f5" stroke="#bdbdbd" stroke-width="1" filter="url(#shadow)"/>
    <text x="450" y="19" text-anchor="middle" font-size="12" font-weight="600" fill="#333333">Layer Pattern (example: 32 layers)</text>
    <g transform="translate(115, 30)">
      <rect x="0" width="18" height="12" rx="2" fill="#c8e6c9" stroke="#66BB6A" stroke-width="0.6"/><text x="9" y="10" text-anchor="middle" font-size="7" fill="#333333">0</text>
      <rect x="21" width="18" height="12" rx="2" fill="#c8e6c9" stroke="#66BB6A" stroke-width="0.6"/><text x="30" y="10" text-anchor="middle" font-size="7" fill="#333333">1</text>
      <rect x="42" width="18" height="12" rx="2" fill="#c8e6c9" stroke="#66BB6A" stroke-width="0.6"/><text x="51" y="10" text-anchor="middle" font-size="7" fill="#333333">2</text>
      <rect x="63" width="18" height="12" rx="2" fill="#bbdefb" stroke="#1976D2" stroke-width="0.6"/><text x="72" y="10" text-anchor="middle" font-size="7" fill="#333333">3</text>
      <rect x="84" width="18" height="12" rx="2" fill="#c8e6c9" stroke="#66BB6A" stroke-width="0.6"/><text x="93" y="10" text-anchor="middle" font-size="7" fill="#333333">4</text>
      <rect x="105" width="18" height="12" rx="2" fill="#c8e6c9" stroke="#66BB6A" stroke-width="0.6"/><text x="114" y="10" text-anchor="middle" font-size="7" fill="#333333">5</text>
      <rect x="126" width="18" height="12" rx="2" fill="#c8e6c9" stroke="#66BB6A" stroke-width="0.6"/><text x="135" y="10" text-anchor="middle" font-size="7" fill="#333333">6</text>
      <rect x="147" width="18" height="12" rx="2" fill="#bbdefb" stroke="#1976D2" stroke-width="0.6"/><text x="156" y="10" text-anchor="middle" font-size="7" fill="#333333">7</text>
      <rect x="168" width="18" height="12" rx="2" fill="#c8e6c9" stroke="#66BB6A" stroke-width="0.6"/><text x="177" y="10" text-anchor="middle" font-size="7" fill="#333333">8</text>
      <rect x="189" width="18" height="12" rx="2" fill="#c8e6c9" stroke="#66BB6A" stroke-width="0.6"/><text x="198" y="10" text-anchor="middle" font-size="7" fill="#333333">9</text>
      <rect x="210" width="18" height="12" rx="2" fill="#c8e6c9" stroke="#66BB6A" stroke-width="0.6"/><text x="219" y="10" text-anchor="middle" font-size="7" fill="#333333">10</text>
      <rect x="231" width="18" height="12" rx="2" fill="#bbdefb" stroke="#1976D2" stroke-width="0.6"/><text x="240" y="10" text-anchor="middle" font-size="7" fill="#333333">11</text>
      <rect x="252" width="18" height="12" rx="2" fill="#c8e6c9" stroke="#66BB6A" stroke-width="0.6"/><text x="261" y="10" text-anchor="middle" font-size="7" fill="#333333">12</text>
      <rect x="273" width="18" height="12" rx="2" fill="#c8e6c9" stroke="#66BB6A" stroke-width="0.6"/><text x="282" y="10" text-anchor="middle" font-size="7" fill="#333333">13</text>
      <rect x="294" width="18" height="12" rx="2" fill="#c8e6c9" stroke="#66BB6A" stroke-width="0.6"/><text x="303" y="10" text-anchor="middle" font-size="7" fill="#333333">14</text>
      <rect x="315" width="18" height="12" rx="2" fill="#bbdefb" stroke="#1976D2" stroke-width="0.6"/><text x="324" y="10" text-anchor="middle" font-size="7" fill="#333333">15</text>
      <rect x="336" width="18" height="12" rx="2" fill="#c8e6c9" stroke="#66BB6A" stroke-width="0.6"/><text x="345" y="10" text-anchor="middle" font-size="7" fill="#333333">16</text>
      <rect x="357" width="18" height="12" rx="2" fill="#c8e6c9" stroke="#66BB6A" stroke-width="0.6"/><text x="366" y="10" text-anchor="middle" font-size="7" fill="#333333">17</text>
      <rect x="378" width="18" height="12" rx="2" fill="#c8e6c9" stroke="#66BB6A" stroke-width="0.6"/><text x="387" y="10" text-anchor="middle" font-size="7" fill="#333333">18</text>
      <rect x="399" width="18" height="12" rx="2" fill="#bbdefb" stroke="#1976D2" stroke-width="0.6"/><text x="408" y="10" text-anchor="middle" font-size="7" fill="#333333">19</text>
      <rect x="420" width="18" height="12" rx="2" fill="#c8e6c9" stroke="#66BB6A" stroke-width="0.6"/><text x="429" y="10" text-anchor="middle" font-size="7" fill="#333333">20</text>
      <rect x="441" width="18" height="12" rx="2" fill="#c8e6c9" stroke="#66BB6A" stroke-width="0.6"/><text x="450" y="10" text-anchor="middle" font-size="7" fill="#333333">21</text>
      <rect x="462" width="18" height="12" rx="2" fill="#c8e6c9" stroke="#66BB6A" stroke-width="0.6"/><text x="471" y="10" text-anchor="middle" font-size="7" fill="#333333">22</text>
      <rect x="483" width="18" height="12" rx="2" fill="#bbdefb" stroke="#1976D2" stroke-width="0.6"/><text x="492" y="10" text-anchor="middle" font-size="7" fill="#333333">23</text>
      <rect x="504" width="18" height="12" rx="2" fill="#c8e6c9" stroke="#66BB6A" stroke-width="0.6"/><text x="513" y="10" text-anchor="middle" font-size="7" fill="#333333">24</text>
      <rect x="525" width="18" height="12" rx="2" fill="#c8e6c9" stroke="#66BB6A" stroke-width="0.6"/><text x="534" y="10" text-anchor="middle" font-size="7" fill="#333333">25</text>
      <rect x="546" width="18" height="12" rx="2" fill="#c8e6c9" stroke="#66BB6A" stroke-width="0.6"/><text x="555" y="10" text-anchor="middle" font-size="7" fill="#333333">26</text>
      <rect x="567" width="18" height="12" rx="2" fill="#bbdefb" stroke="#1976D2" stroke-width="0.6"/><text x="576" y="10" text-anchor="middle" font-size="7" fill="#333333">27</text>
      <rect x="588" width="18" height="12" rx="2" fill="#c8e6c9" stroke="#66BB6A" stroke-width="0.6"/><text x="597" y="10" text-anchor="middle" font-size="7" fill="#333333">28</text>
      <rect x="609" width="18" height="12" rx="2" fill="#c8e6c9" stroke="#66BB6A" stroke-width="0.6"/><text x="618" y="10" text-anchor="middle" font-size="7" fill="#333333">29</text>
      <rect x="630" width="18" height="12" rx="2" fill="#c8e6c9" stroke="#66BB6A" stroke-width="0.6"/><text x="639" y="10" text-anchor="middle" font-size="7" fill="#333333">30</text>
      <rect x="651" width="18" height="12" rx="2" fill="#bbdefb" stroke="#1976D2" stroke-width="0.6"/><text x="660" y="10" text-anchor="middle" font-size="7" fill="#333333">31</text>
    </g>
  </g>
  <line x1="480" y1="1482" x2="480" y2="1502" stroke="#555555" stroke-width="1.5" marker-end="url(#arrow)"/>
  <g transform="translate(330, 1502)">
    <rect width="300" height="34" rx="5" fill="url(#normGrad)" stroke="#9C27B0" stroke-width="1" filter="url(#shadow)"/>
    <text x="150" y="14" text-anchor="middle" font-weight="600" fill="#6a1b9a">RMSNorm</text>
    <text x="150" y="27" text-anchor="middle" font-size="10" fill="#777777">output_norm.weight</text>
  </g>
  <line x1="480" y1="1536" x2="480" y2="1556" stroke="#555555" stroke-width="1.5" marker-end="url(#arrow)"/>
  <g transform="translate(330, 1556)">
    <rect width="300" height="40" rx="6" fill="url(#globalGrad)" stroke="#C62828" stroke-width="1.2" filter="url(#shadow)"/>
    <text x="150" y="17" text-anchor="middle" font-weight="600" fill="#b71c1c">LM Head</text>
    <text x="150" y="32" text-anchor="middle" font-size="10" fill="#777777">tied: reuses token_embd.weight</text>
  </g>
  <line x1="480" y1="1596" x2="480" y2="1616" stroke="#555555" stroke-width="1.5" marker-end="url(#arrow)"/>
  <g transform="translate(380, 1616)">
    <rect width="200" height="32" rx="6" fill="#eeeeee" stroke="#9e9e9e" stroke-width="1"/>
    <text x="100" y="20" text-anchor="middle" font-weight="600" fill="#333333">Logits [n_vocab]</text>
  </g>
  <text x="30" y="1678" font-size="11" fill="#666666"><tspan font-weight="600">Routing rule:</tspan> <tspan font-family="monospace" fill="#333333">(@{layer_idx} + 1) % ${full_attn_interval} != 0</tspan> -> true: recurrent_ssm / false: full_attention</text>
  <rect x="730" y="1658" width="200" height="38" rx="5" fill="#f5f5f5" stroke="#bdbdbd" stroke-width="0.8"/>
  <text x="738" y="1673" font-size="10" font-weight="600" fill="#666666">Tokens</text>
  <text x="738" y="1686" font-size="9" fill="#999999" font-family="monospace">thinking: &lt;think&gt;...&lt;/think&gt;</text>
</svg>
